<svg xmlns="http://www.w3.org/2000/svg" width="1094" height="1211"><g fill="none" fill-rule="evenodd"><path stroke="#007AFF" stroke-dasharray="8" stroke-linecap="round" stroke-width="4" d="M13.2555408 2H1080.74446c3.56607 0 4.85922.37130245 6.16292 1.06853082 1.30371.69722837 2.32686 1.72038266 3.02409 3.02408637C1090.6287 7.39632089 1091 8.68946584 1091 12.2555408v43.4889184c0 3.566075-.3713 4.8592199-1.06853 6.1629236-.69723 1.3037037-1.72038 2.326858-3.02409 3.0240864C1085.60368 65.6286976 1084.31053 66 1080.74446 66H13.2555408c-3.56607496 0-4.85921991-.3713024-6.16292361-1.0685308-1.30370371-.6972284-2.326858-1.7203827-3.02408637-3.0240864C3.37130244 60.6036791 3 59.3105342 3 55.7444592V12.2555408c0-3.56607496.37130245-4.85921991 1.06853082-6.16292361.69722837-1.30370371 1.72038266-2.326858 3.02408637-3.02408637C8.39632089 2.37130245 9.68946584 2 13.2555408 2z"/><path fill="#012F62" fill-rule="nonzero" d="M496.481209 42.375c-4.95 0-9.075-3.575-9.075-9.225 0-5.65 4.275-9.25 9.025-9.25 4.9 0 7.425 3 8.125 5.875l-3.25 1.025c-.425-1.7-1.8-3.575-4.875-3.575-2.65 0-5.45 1.9-5.45 5.925 0 3.775 2.65 5.85 5.5 5.85 3.025 0 4.5-1.975 4.975-3.625l3.225.975c-.675 2.725-3.225 6.025-8.2 6.025zm23-13.875l-3.1.95c-.175-.975-.975-2.5-3.225-2.5-1.675 0-2.775 1.075-2.775 2.25 0 .975.625 1.75 1.925 2l2.475.475c3.225.625 4.95 2.725 4.95 5.225 0 2.725-2.275 5.475-6.4 5.475-4.7 0-6.775-3.025-7.05-5.55l3.2-.85c.15 1.75 1.375 3.325 3.875 3.325 1.85 0 2.875-.925 2.875-2.175 0-1.025-.775-1.825-2.15-2.1l-2.475-.5c-2.825-.575-4.65-2.4-4.65-5.075 0-3.15 2.825-5.55 6.175-5.55 4.3 0 5.95 2.6 6.35 4.6zm15.1 0l-3.1.95c-.175-.975-.975-2.5-3.225-2.5-1.675 0-2.775 1.075-2.775 2.25 0 .975.625 1.75 1.925 2l2.475.475c3.225.625 4.95 2.725 4.95 5.225 0 2.725-2.275 5.475-6.4 5.475-4.7 0-6.775-3.025-7.05-5.55l3.2-.85c.15 1.75 1.375 3.325 3.875 3.325 1.85 0 2.875-.925 2.875-2.175 0-1.025-.775-1.825-2.15-2.1l-2.475-.5c-2.825-.575-4.65-2.4-4.65-5.075 0-3.15 2.825-5.55 6.175-5.55 4.3 0 5.95 2.6 6.35 4.6zm12.575-4.45l-8.875 18.175h-3l8.85-18.175h3.025zm-1.9 12.55v-1.175l3.325-.6v1.625c.025 1.825 1.05 2.65 2.45 2.65 1.45 0 2.35-1.025 2.35-2.575v-12.25h3.45v12.25c0 3.2-2.325 5.85-5.775 5.85-3.5 0-5.8-2.3-5.8-5.775zm27.375-8.1l-3.1.95c-.175-.975-.975-2.5-3.225-2.5-1.675 0-2.775 1.075-2.775 2.25 0 .975.625 1.75 1.925 2l2.475.475c3.225.625 4.95 2.725 4.95 5.225 0 2.725-2.275 5.475-6.4 5.475-4.7 0-6.775-3.025-7.05-5.55l3.2-.85c.15 1.75 1.375 3.325 3.875 3.325 1.85 0 2.875-.925 2.875-2.175 0-1.025-.775-1.825-2.15-2.1l-2.475-.5c-2.825-.575-4.65-2.4-4.65-5.075 0-3.15 2.825-5.55 6.175-5.55 4.3 0 5.95 2.6 6.35 4.6zm12.575-4.45l-8.875 18.175h-3l8.85-18.175h3.025zm21.15 16.2c0 1.1-.9 2-2.025 2-1.1 0-2-.9-2-2 0-1.125.9-2.025 2-2.025 1.125 0 2.025.9 2.025 2.025zm-7.625 0c0 1.1-.9 2-2.025 2-1.1 0-2.025-.9-2.025-2 0-1.125.925-2.025 2.025-2.025 1.125 0 2.025.9 2.025 2.025zm-7.625 0c0 1.1-.875 2-2 2s-2.025-.9-2.025-2c0-1.125.9-2.025 2.025-2.025s2 .9 2 2.025z"/><path fill="#007AFF" fill-opacity=".044" fill-rule="nonzero" stroke="#007AFF" stroke-dasharray="8" stroke-linecap="round" stroke-width="4" d="M1092.14074 162v680.058523c0 4.418278-3.58172 8-8 8H684.527914c-4.418278 0-8-3.581722-8-8V729.053186c0-4.418278-3.581722-8-8-8H10c-4.418278 0-8-3.581722-8-8V162m0 0v-56c0-4.418278 3.581722-8 8-8h1074c4.41828 0 8 3.581722 8 8v56"/><path fill="#007AFF" fill-rule="nonzero" d="M421.1015 154h-4.785l-10.626-16.599V154h-4.554v-23.397h5.676l9.735 15.477v-15.477h4.554V154zm20.998 0h-14.652v-23.397h14.652v4.29h-10.098v5.346h9.141v4.059h-9.141v5.412h10.098V154zm23.176-19.074h-7.392V154h-4.587v-19.074h-7.392v-4.323h19.371v4.323zm24.76 19.074h-3.696l-.297-2.673c-1.056 1.584-3.366 3.168-6.897 3.168-6.303 0-11.682-4.62-11.682-12.177 0-7.557 5.643-12.21 11.979-12.21 6.138 0 9.537 3.597 10.692 7.194l-4.356 1.551c-.594-2.079-2.541-4.488-6.336-4.488-3.531 0-7.359 2.409-7.359 7.953 0 5.28 3.465 8.019 7.392 8.019 4.323 0 6.006-2.904 6.27-4.554h-7.392v-3.96h11.682V154zm20.239 0h-14.652v-23.397h14.652v4.29h-10.098v5.346h9.141v4.059h-9.141v5.412h10.098V154zm25.519 0h-4.785l-10.626-16.599V154h-4.554v-23.397h5.676l9.735 15.477v-15.477h4.554V154zm30.479 0h-14.982v-23.397h4.554v19.041h10.428V154zm20.635 0l-1.947-5.346h-9.504l-1.947 5.346h-4.818l8.976-23.397h5.28l8.91 23.397h-4.95zm-6.699-18.348l-3.234 8.844h6.468l-3.234-8.844zm18.82 8.514l-8.151-13.563h5.346l5.247 9.273 5.247-9.273h5.115l-8.25 13.563V154h-4.554v-9.834zm18.556-1.881c0 5.28 3.696 7.788 7.293 7.788 3.63 0 7.326-2.508 7.326-7.788s-3.696-7.788-7.326-7.788c-3.597 0-7.293 2.508-7.293 7.788zm-4.719.033c0-7.557 5.676-12.21 12.012-12.21 6.369 0 12.045 4.653 12.045 12.21 0 7.524-5.676 12.177-12.045 12.177-6.336 0-12.012-4.653-12.012-12.177zm37.762 12.21c-4.983 0-8.976-3.069-8.976-8.811v-15.114h4.554v14.784c0 3.069 1.716 4.686 4.422 4.686 2.772 0 4.455-1.617 4.455-4.686v-14.784h4.554v15.114c0 5.742-3.993 8.811-9.009 8.811zm32.449-19.602h-7.392V154h-4.587v-19.074h-7.392v-4.323h19.371v4.323zm19.942 1.254l-4.092 1.254c-.231-1.287-1.287-3.3-4.257-3.3-2.211 0-3.663 1.419-3.663 2.97 0 1.287.825 2.31 2.541 2.64l3.267.627c4.257.825 6.534 3.597 6.534 6.897 0 3.597-3.003 7.227-8.448 7.227-6.204 0-8.943-3.993-9.306-7.326l4.224-1.122c.198 2.31 1.815 4.389 5.115 4.389 2.442 0 3.795-1.221 3.795-2.871 0-1.353-1.023-2.409-2.838-2.772l-3.267-.66c-3.729-.759-6.138-3.168-6.138-6.699 0-4.158 3.729-7.326 8.151-7.326 5.676 0 7.854 3.432 8.382 6.072z"/><g fill="#007AFF"><path fill-opacity=".08" d="M46.2555408 194H185.744459c3.566075 0 4.85922.37130244 6.162924 1.06853082 1.303704.69722837 2.326858 1.72038266 3.024086 3.02408637.697229 1.3037037 1.068531 2.59684865 1.068531 6.16292361v43.4889184c0 3.566075-.371302 4.8592199-1.068531 6.1629236-.697228 1.3037037-1.720382 2.326858-3.024086 3.0240864C190.603679 257.6286976 189.310534 258 185.744459 258H46.2555408c-3.56607496 0-4.85921991-.3713024-6.16292361-1.0685308-1.30370371-.6972284-2.326858-1.7203827-3.02408637-3.0240864C36.37130244 252.6036791 36 251.3105342 36 247.7444592v-43.4889184c0-3.56607496.37130244-4.85921991 1.06853082-6.16292361.69722837-1.30370371 1.72038266-2.326858 3.02408637-3.02408637C41.39632089 194.37130244 42.68946584 194 46.2555408 194z"/><path fill-rule="nonzero" d="M64.9805 217.111h5.355c2.898 0 4.536 1.701 4.536 4.011 0 1.533-.924 2.772-2.163 3.192 1.449.357 2.625 1.68 2.625 3.528 0 2.415-1.806 4.158-4.599 4.158h-5.754v-14.889zm2.856 6.153h2.058c1.323 0 2.121-.735 2.121-1.869s-.735-1.848-2.142-1.848h-2.037v3.717zm0 6.321h2.352c1.407 0 2.247-.735 2.247-1.932 0-1.176-.756-1.995-2.205-1.995h-2.394v3.927zM80.3735 232h-2.793v-15.204h2.793V232zm7.623-2.226c1.365 0 2.625-.987 2.625-2.94 0-1.953-1.26-2.94-2.625-2.94s-2.625.987-2.625 2.94c0 1.932 1.26 2.94 2.625 2.94zm0-8.421c3.087 0 5.418 2.289 5.418 5.481 0 3.171-2.331 5.481-5.418 5.481s-5.418-2.31-5.418-5.481c0-3.192 2.331-5.481 5.418-5.481zm12.264 2.583c-1.428 0-2.625 1.029-2.625 2.898 0 1.869 1.218 2.919 2.646 2.919s2.142-.945 2.373-1.743l2.457.819c-.462 1.722-2.079 3.486-4.83 3.486-3.045 0-5.439-2.31-5.439-5.481 0-3.192 2.352-5.481 5.355-5.481 2.814 0 4.41 1.743 4.851 3.486l-2.499.84c-.252-.861-.903-1.743-2.289-1.743zm16.926-2.268l-4.137 4.347 4.221 5.985h-3.423l-2.73-3.948-1.155 1.218V232h-2.793v-15.204h2.793v8.715l3.57-3.843h3.654zm16.653 0L129.8285 232h-2.793l-4.221-10.332h3.066l2.562 6.93 2.457-6.93h2.94zm4.494 10.332h-2.793v-10.332h2.793V232zm-3.129-13.713c0-.966.777-1.743 1.722-1.743.966 0 1.722.777 1.722 1.743 0 .924-.756 1.701-1.722 1.701-.945 0-1.722-.777-1.722-1.701zm8.148 7.371h4.62c-.042-1.029-.714-2.037-2.31-2.037-1.449 0-2.247 1.092-2.31 2.037zm4.893 2.688l2.331.693c-.525 1.785-2.163 3.276-4.704 3.276-2.835 0-5.334-2.037-5.334-5.523 0-3.297 2.436-5.439 5.082-5.439 3.192 0 5.103 2.037 5.103 5.355 0 .399-.042.819-.042.861h-7.392c.063 1.365 1.218 2.352 2.604 2.352 1.302 0 2.016-.651 2.352-1.575zm10.374-6.678h2.94l2.226 6.657 1.911-6.657h2.772L165.2345 232h-2.793l-2.415-7.056-2.373 7.056h-2.835l-3.297-10.332h2.94l1.911 6.636 2.247-6.636z"/><path fill-opacity=".08" d="M237.2555408 194H376.744459c3.566075 0 4.85922.37130244 6.162924 1.06853082 1.303704.69722837 2.326858 1.72038266 3.024086 3.02408637.697229 1.3037037 1.068531 2.59684865 1.068531 6.16292361v43.4889184c0 3.566075-.371302 4.8592199-1.068531 6.1629236-.697228 1.3037037-1.720382 2.326858-3.024086 3.0240864C381.603679 257.6286976 380.310534 258 376.744459 258H237.2555408c-3.56607496 0-4.85921991-.3713024-6.16292361-1.0685308-1.30370371-.6972284-2.326858-1.7203827-3.02408637-3.0240864C227.37130244 252.6036791 227 251.3105342 227 247.7444592v-43.4889184c0-3.56607496.37130244-4.85921991 1.06853082-6.16292361.69722837-1.30370371 1.72038266-2.326858 3.02408637-3.02408637C232.39632089 194.37130244 233.68946584 194 237.2555408 194z"/><path fill-rule="nonzero" d="M269.1685 232h-9.534v-14.889h2.898v12.117h6.636V232zm1.512-2.814c0-1.848 1.365-2.877 3.087-3.129l2.541-.378c.588-.084.777-.378.777-.735 0-.735-.567-1.344-1.743-1.344-1.218 0-1.89.777-1.974 1.68l-2.478-.525c.168-1.617 1.659-3.402 4.431-3.402 3.276 0 4.494 1.848 4.494 3.927v5.082c0 .546.063 1.281.126 1.638h-2.562c-.063-.273-.105-.84-.105-1.239-.525.819-1.512 1.533-3.045 1.533-2.205 0-3.549-1.491-3.549-3.108zm4.137 1.029c1.176 0 2.268-.567 2.268-2.394v-.462l-2.331.357c-.714.105-1.281.504-1.281 1.302 0 .609.441 1.197 1.344 1.197zm11.109 5.859h-2.961l2.436-5.376-4.389-9.03h3.129l2.751 6.048 2.541-6.048h2.982l-6.489 14.406zm12.348-6.3c1.365 0 2.625-.987 2.625-2.94 0-1.953-1.26-2.94-2.625-2.94s-2.625.987-2.625 2.94c0 1.932 1.26 2.94 2.625 2.94zm0-8.421c3.087 0 5.418 2.289 5.418 5.481 0 3.171-2.331 5.481-5.418 5.481s-5.418-2.31-5.418-5.481c0-3.192 2.331-5.481 5.418-5.481zM312.6175 232c-.042-.21-.084-.693-.084-1.113-.567.966-1.764 1.386-2.856 1.386-2.499 0-3.927-1.827-3.927-4.074v-6.531h2.793v5.964c0 1.155.588 2.079 1.89 2.079 1.239 0 1.953-.84 1.953-2.037v-6.006h2.793v8.463c0 .798.063 1.512.105 1.869h-2.667zm8.988-13.419v3.087h2.079v2.478h-2.079v4.326c0 .903.42 1.197 1.218 1.197.336 0 .714-.042.861-.084v2.31c-.252.105-.756.252-1.575.252-2.016 0-3.276-1.197-3.276-3.192v-4.809h-1.869v-2.478h.525c1.092 0 1.596-.714 1.596-1.638v-1.449h2.52zm13.02 0v3.087h2.079v2.478h-2.079v4.326c0 .903.42 1.197 1.218 1.197.336 0 .714-.042.861-.084v2.31c-.252.105-.756.252-1.575.252-2.016 0-3.276-1.197-3.276-3.192v-4.809h-1.869v-2.478h.525c1.092 0 1.596-.714 1.596-1.638v-1.449h2.52zm7.098 17.409h-2.793v-14.322h2.709v1.26c.462-.798 1.617-1.491 3.171-1.491 3.024 0 4.767 2.31 4.767 5.376 0 3.129-1.953 5.439-4.872 5.439-1.428 0-2.478-.567-2.982-1.26v4.998zm5.103-9.156c0-1.827-1.134-2.898-2.562-2.898s-2.583 1.071-2.583 2.898c0 1.827 1.155 2.919 2.583 2.919 1.428 0 2.562-1.071 2.562-2.919zm7.749 5.166h-2.793v-15.204h2.793V232z"/></g><g fill="#007AFF"><path fill-opacity=".08" d="M46.2555408 450H185.744459c3.566075 0 4.85922.37130244 6.162924 1.06853082 1.303704.69722837 2.326858 1.72038266 3.024086 3.02408637.697229 1.3037037 1.068531 2.59684865 1.068531 6.16292361v43.4889184c0 3.566075-.371302 4.8592199-1.068531 6.1629236-.697228 1.3037037-1.720382 2.326858-3.024086 3.0240864C190.603679 513.6286976 189.310534 514 185.744459 514H46.2555408c-3.56607496 0-4.85921991-.3713024-6.16292361-1.0685308-1.30370371-.6972284-2.326858-1.7203827-3.02408637-3.0240864C36.37130244 508.6036791 36 507.3105342 36 503.7444592v-43.4889184c0-3.56607496.37130244-4.85921991 1.06853082-6.16292361.69722837-1.30370371 1.72038266-2.326858 3.02408637-3.02408637C41.39632089 450.37130245 42.68946584 450 46.2555408 450z"/><path fill-rule="nonzero" d="M90.632 473.111h5.355c2.898 0 4.536 1.701 4.536 4.011 0 1.533-.924 2.772-2.163 3.192 1.449.357 2.625 1.68 2.625 3.528 0 2.415-1.806 4.158-4.599 4.158h-5.754v-14.889zm2.856 6.153h2.058c1.323 0 2.121-.735 2.121-1.869s-.735-1.848-2.142-1.848h-2.037v3.717zm0 6.321h2.352c1.407 0 2.247-.735 2.247-1.932 0-1.176-.756-1.995-2.205-1.995h-2.394v3.927zM106.025 488h-2.793v-15.204h2.793V488zm7.623-2.226c1.365 0 2.625-.987 2.625-2.94 0-1.953-1.26-2.94-2.625-2.94s-2.625.987-2.625 2.94c0 1.932 1.26 2.94 2.625 2.94zm0-8.421c3.087 0 5.418 2.289 5.418 5.481 0 3.171-2.331 5.481-5.418 5.481s-5.418-2.31-5.418-5.481c0-3.192 2.331-5.481 5.418-5.481zm12.264 2.583c-1.428 0-2.625 1.029-2.625 2.898 0 1.869 1.218 2.919 2.646 2.919s2.142-.945 2.373-1.743l2.457.819c-.462 1.722-2.079 3.486-4.83 3.486-3.045 0-5.439-2.31-5.439-5.481 0-3.192 2.352-5.481 5.355-5.481 2.814 0 4.41 1.743 4.851 3.486l-2.499.84c-.252-.861-.903-1.743-2.289-1.743zm16.926-2.268l-4.137 4.347 4.221 5.985h-3.423l-2.73-3.948-1.155 1.218V488h-2.793v-15.204h2.793v8.715l3.57-3.843h3.654z"/><path fill-opacity=".08" d="M237.2555408 450H376.744459c3.566075 0 4.85922.37130244 6.162924 1.06853082 1.303704.69722837 2.326858 1.72038266 3.024086 3.02408637.697229 1.3037037 1.068531 2.59684865 1.068531 6.16292361v43.4889184c0 3.566075-.371302 4.8592199-1.068531 6.1629236-.697228 1.3037037-1.720382 2.326858-3.024086 3.0240864C381.603679 513.6286976 380.310534 514 376.744459 514H237.2555408c-3.56607496 0-4.85921991-.3713024-6.16292361-1.0685308-1.30370371-.6972284-2.326858-1.7203827-3.02408637-3.0240864C227.37130244 508.6036791 227 507.3105342 227 503.7444592v-43.4889184c0-3.56607496.37130244-4.85921991 1.06853082-6.16292361.69722837-1.30370371 1.72038266-2.326858 3.02408637-3.02408637C232.39632089 450.37130245 233.68946584 450 237.2555408 450z"/><path fill-rule="nonzero" d="M277.701 480.566c0-4.809 3.612-7.77 7.644-7.77 4.053 0 7.665 2.961 7.665 7.77 0 2.1-.693 3.843-1.827 5.145l1.785 1.974-1.911 1.638-1.827-2.016c-1.155.651-2.499 1.008-3.885 1.008-4.032 0-7.644-2.961-7.644-7.749zm3.003-.021c0 3.36 2.352 4.956 4.641 4.956.651 0 1.323-.126 1.911-.378l-2.331-2.562 1.932-1.659 2.331 2.604c.504-.756.819-1.743.819-2.961 0-3.36-2.352-4.956-4.662-4.956-2.289 0-4.641 1.596-4.641 4.956zM302.019 488c-.042-.21-.084-.693-.084-1.113-.567.966-1.764 1.386-2.856 1.386-2.499 0-3.927-1.827-3.927-4.074v-6.531h2.793v5.964c0 1.155.588 2.079 1.89 2.079 1.239 0 1.953-.84 1.953-2.037v-6.006h2.793v8.463c0 .798.063 1.512.105 1.869h-2.667zm7.539-6.342h4.62c-.042-1.029-.714-2.037-2.31-2.037-1.449 0-2.247 1.092-2.31 2.037zm4.893 2.688l2.331.693c-.525 1.785-2.163 3.276-4.704 3.276-2.835 0-5.334-2.037-5.334-5.523 0-3.297 2.436-5.439 5.082-5.439 3.192 0 5.103 2.037 5.103 5.355 0 .399-.042.819-.042.861h-7.392c.063 1.365 1.218 2.352 2.604 2.352 1.302 0 2.016-.651 2.352-1.575zm10.983-6.72v2.814c-.315-.063-.588-.084-.84-.084-1.428 0-2.667.693-2.667 2.919V488h-2.793v-10.332h2.709v1.533c.63-1.365 2.058-1.617 2.94-1.617.231 0 .441.021.651.042zm5.985 14.448h-2.961l2.436-5.376-4.389-9.03h3.129l2.751 6.048 2.541-6.048h2.982l-6.489 14.406z"/></g><g fill-rule="nonzero"><path fill="#000" fill-opacity=".12" d="M494.2555408 450H633.744459c3.566075 0 4.85922.37130244 6.162924 1.06853082 1.303704.69722837 2.326858 1.72038266 3.024086 3.02408637.697229 1.3037037 1.068531 2.59684865 1.068531 6.16292361v43.4889184c0 3.566075-.371302 4.8592199-1.068531 6.1629236-.697228 1.3037037-1.720382 2.326858-3.024086 3.0240864C638.603679 513.6286976 637.310534 514 633.744459 514H494.2555408c-3.56607496 0-4.85921991-.3713024-6.16292361-1.0685308-1.30370371-.6972284-2.326858-1.7203827-3.02408637-3.0240864C484.37130244 508.6036791 484 507.3105342 484 503.7444592v-43.4889184c0-3.56607496.37130244-4.85921991 1.06853082-6.16292361.69722837-1.30370371 1.72038266-2.326858 3.02408637-3.02408637C489.39632089 450.37130245 490.68946584 450 494.2555408 450z"/><path fill="#002F62" d="M504.3915 488.315c-4.158 0-7.623-3.003-7.623-7.749 0-4.746 3.591-7.77 7.581-7.77 4.116 0 6.237 2.52 6.825 4.935l-2.73.861c-.357-1.428-1.512-3.003-4.095-3.003-2.226 0-4.578 1.596-4.578 4.977 0 3.171 2.226 4.914 4.62 4.914 2.541 0 3.78-1.659 4.179-3.045l2.709.819c-.567 2.289-2.709 5.061-6.888 5.061zm15.855-.315c-.042-.21-.084-.693-.084-1.113-.567.966-1.764 1.386-2.856 1.386-2.499 0-3.927-1.827-3.927-4.074v-6.531h2.793v5.964c0 1.155.588 2.079 1.89 2.079 1.239 0 1.953-.84 1.953-2.037v-6.006h2.793v8.463c0 .798.063 1.512.105 1.869h-2.667zm4.662-2.877l2.394-.525c.063.819.672 1.575 1.89 1.575.924 0 1.365-.483 1.365-1.029 0-.462-.315-.84-1.113-1.008l-1.365-.315c-1.995-.441-2.898-1.638-2.898-3.087 0-1.848 1.638-3.381 3.864-3.381 2.94 0 3.927 1.869 4.053 2.982l-2.331.525c-.084-.609-.525-1.386-1.701-1.386-.735 0-1.323.441-1.323 1.029 0 .504.378.819.945.924l1.47.315c2.037.42 3.066 1.659 3.066 3.171 0 1.68-1.302 3.402-4.011 3.402-3.108 0-4.179-2.016-4.305-3.192zm14.007-10.542v3.087h2.079v2.478h-2.079v4.326c0 .903.42 1.197 1.218 1.197.336 0 .714-.042.861-.084v2.31c-.252.105-.756.252-1.575.252-2.016 0-3.276-1.197-3.276-3.192v-4.809h-1.869v-2.478h.525c1.092 0 1.596-.714 1.596-1.638v-1.449h2.52zm9.03 11.193c1.365 0 2.625-.987 2.625-2.94 0-1.953-1.26-2.94-2.625-2.94s-2.625.987-2.625 2.94c0 1.932 1.26 2.94 2.625 2.94zm0-8.421c3.087 0 5.418 2.289 5.418 5.481 0 3.171-2.331 5.481-5.418 5.481s-5.418-2.31-5.418-5.481c0-3.192 2.331-5.481 5.418-5.481zM558.3615 488h-2.793v-10.332h2.667v1.26c.567-1.008 1.89-1.554 3.024-1.554 1.407 0 2.541.609 3.066 1.722.819-1.26 1.911-1.722 3.276-1.722 1.911 0 3.738 1.155 3.738 3.927V488h-2.709v-6.132c0-1.113-.546-1.953-1.827-1.953-1.197 0-1.911.924-1.911 2.037V488h-2.772v-6.132c0-1.113-.567-1.953-1.827-1.953-1.218 0-1.932.903-1.932 2.037V488zm23.709 0h-2.709v-15.204h2.751v6.006c.462-.735 1.596-1.407 3.129-1.407 3.024 0 4.767 2.331 4.767 5.397 0 3.129-1.932 5.46-4.872 5.46-1.428 0-2.52-.63-3.066-1.512V488zm5.145-5.187c0-1.89-1.134-2.919-2.562-2.919-1.407 0-2.583 1.029-2.583 2.919 0 1.869 1.176 2.94 2.583 2.94 1.428 0 2.562-1.05 2.562-2.94zm7.791 5.187h-2.793v-15.204h2.793V488zm7.623-2.226c1.365 0 2.625-.987 2.625-2.94 0-1.953-1.26-2.94-2.625-2.94s-2.625.987-2.625 2.94c0 1.932 1.26 2.94 2.625 2.94zm0-8.421c3.087 0 5.418 2.289 5.418 5.481 0 3.171-2.331 5.481-5.418 5.481s-5.418-2.31-5.418-5.481c0-3.192 2.331-5.481 5.418-5.481zm12.264 2.583c-1.428 0-2.625 1.029-2.625 2.898 0 1.869 1.218 2.919 2.646 2.919s2.142-.945 2.373-1.743l2.457.819c-.462 1.722-2.079 3.486-4.83 3.486-3.045 0-5.439-2.31-5.439-5.481 0-3.192 2.352-5.481 5.355-5.481 2.814 0 4.41 1.743 4.851 3.486l-2.499.84c-.252-.861-.903-1.743-2.289-1.743zm16.926-2.268l-4.137 4.347 4.221 5.985h-3.423l-2.73-3.948-1.155 1.218V488h-2.793v-15.204h2.793v8.715l3.57-3.843h3.654z"/><path fill="#000" fill-opacity=".12" d="M686.2555408 450H825.744459c3.566075 0 4.85922.37130244 6.162924 1.06853082 1.303704.69722837 2.326858 1.72038266 3.024086 3.02408637.697229 1.3037037 1.068531 2.59684865 1.068531 6.16292361v43.4889184c0 3.566075-.371302 4.8592199-1.068531 6.1629236-.697228 1.3037037-1.720382 2.326858-3.024086 3.0240864C830.603679 513.6286976 829.310534 514 825.744459 514H686.2555408c-3.56607496 0-4.85921991-.3713024-6.16292361-1.0685308-1.30370371-.6972284-2.326858-1.7203827-3.02408637-3.0240864C676.37130245 508.6036791 676 507.3105342 676 503.7444592v-43.4889184c0-3.56607496.37130245-4.85921991 1.06853082-6.16292361.69722837-1.30370371 1.72038266-2.326858 3.02408637-3.02408637C681.39632089 450.37130245 682.68946584 450 686.2555408 450z"/><path fill="#002F62" d="M726.075 477.315c-4.158 0-7.623-3.003-7.623-7.749 0-4.746 3.591-7.77 7.581-7.77 4.116 0 6.237 2.52 6.825 4.935l-2.73.861c-.357-1.428-1.512-3.003-4.095-3.003-2.226 0-4.578 1.596-4.578 4.977 0 3.171 2.226 4.914 4.62 4.914 2.541 0 3.78-1.659 4.179-3.045l2.709.819c-.567 2.289-2.709 5.061-6.888 5.061zM741.93 477c-.042-.21-.084-.693-.084-1.113-.567.966-1.764 1.386-2.856 1.386-2.499 0-3.927-1.827-3.927-4.074v-6.531h2.793v5.964c0 1.155.588 2.079 1.89 2.079 1.239 0 1.953-.84 1.953-2.037v-6.006h2.793v8.463c0 .798.063 1.512.105 1.869h-2.667zm4.662-2.877l2.394-.525c.063.819.672 1.575 1.89 1.575.924 0 1.365-.483 1.365-1.029 0-.462-.315-.84-1.113-1.008l-1.365-.315c-1.995-.441-2.898-1.638-2.898-3.087 0-1.848 1.638-3.381 3.864-3.381 2.94 0 3.927 1.869 4.053 2.982l-2.331.525c-.084-.609-.525-1.386-1.701-1.386-.735 0-1.323.441-1.323 1.029 0 .504.378.819.945.924l1.47.315c2.037.42 3.066 1.659 3.066 3.171 0 1.68-1.302 3.402-4.011 3.402-3.108 0-4.179-2.016-4.305-3.192zm14.007-10.542v3.087h2.079v2.478h-2.079v4.326c0 .903.42 1.197 1.218 1.197.336 0 .714-.042.861-.084v2.31c-.252.105-.756.252-1.575.252-2.016 0-3.276-1.197-3.276-3.192v-4.809h-1.869v-2.478h.525c1.092 0 1.596-.714 1.596-1.638v-1.449h2.52zm9.03 11.193c1.365 0 2.625-.987 2.625-2.94 0-1.953-1.26-2.94-2.625-2.94s-2.625.987-2.625 2.94c0 1.932 1.26 2.94 2.625 2.94zm0-8.421c3.087 0 5.418 2.289 5.418 5.481 0 3.171-2.331 5.481-5.418 5.481s-5.418-2.31-5.418-5.481c0-3.192 2.331-5.481 5.418-5.481zM780.045 477h-2.793v-10.332h2.667v1.26c.567-1.008 1.89-1.554 3.024-1.554 1.407 0 2.541.609 3.066 1.722.819-1.26 1.911-1.722 3.276-1.722 1.911 0 3.738 1.155 3.738 3.927V477h-2.709v-6.132c0-1.113-.546-1.953-1.827-1.953-1.197 0-1.911.924-1.911 2.037V477h-2.772v-6.132c0-1.113-.567-1.953-1.827-1.953-1.218 0-1.932.903-1.932 2.037V477zm-41.013 27.99h-2.73v-5.019c-.483.777-1.512 1.281-2.877 1.281-2.94 0-5.04-2.331-5.04-5.439 0-3.024 1.953-5.397 4.956-5.397 1.806 0 2.73.861 3.024 1.449v-1.197h2.667v14.322zm-7.833-9.177c0 1.848 1.134 2.94 2.562 2.94s2.562-1.092 2.562-2.94c0-1.848-1.134-2.898-2.562-2.898s-2.562 1.05-2.562 2.898zM748.692 501c-.042-.21-.084-.693-.084-1.113-.567.966-1.764 1.386-2.856 1.386-2.499 0-3.927-1.827-3.927-4.074v-6.531h2.793v5.964c0 1.155.588 2.079 1.89 2.079 1.239 0 1.953-.84 1.953-2.037v-6.006h2.793v8.463c0 .798.063 1.512.105 1.869h-2.667zm7.581-6.342h4.62c-.042-1.029-.714-2.037-2.31-2.037-1.449 0-2.247 1.092-2.31 2.037zm4.893 2.688l2.331.693c-.525 1.785-2.163 3.276-4.704 3.276-2.835 0-5.334-2.037-5.334-5.523 0-3.297 2.436-5.439 5.082-5.439 3.192 0 5.103 2.037 5.103 5.355 0 .399-.042.819-.042.861h-7.392c.063 1.365 1.218 2.352 2.604 2.352 1.302 0 2.016-.651 2.352-1.575zm10.983-6.72v2.814c-.315-.063-.588-.084-.84-.084-1.428 0-2.667.693-2.667 2.919V501h-2.793v-10.332h2.709v1.533c.63-1.365 2.058-1.617 2.94-1.617.231 0 .441.021.651.042zm5.481 14.448h-2.961l2.436-5.376-4.389-9.03h3.129l2.751 6.048 2.541-6.048h2.982l-6.489 14.406z"/><g><path fill="#000" fill-opacity=".12" d="M910.2555408 450h139.4889182c3.566075 0 4.85922.37130244 6.162924 1.06853082 1.303704.69722837 2.326858 1.72038266 3.024086 3.02408637.697229 1.3037037 1.068531 2.59684865 1.068531 6.16292361v43.4889184c0 3.566075-.371302 4.8592199-1.068531 6.1629236-.697228 1.3037037-1.720382 2.326858-3.024086 3.0240864-1.303704.6972284-2.596849 1.0685308-6.162924 1.0685308H910.2555408c-3.56607496 0-4.85921991-.3713024-6.16292361-1.0685308-1.30370371-.6972284-2.326858-1.7203827-3.02408637-3.0240864C900.37130245 508.6036791 900 507.3105342 900 503.7444592v-43.4889184c0-3.56607496.37130245-4.85921991 1.06853082-6.16292361.69722837-1.30370371 1.72038266-2.326858 3.02408637-3.02408637C905.39632089 450.37130245 906.68946584 450 910.2555408 450z"/><path fill="#002F62" d="M951.075 476.315c-4.158 0-7.623-3.003-7.623-7.749 0-4.746 3.591-7.77 7.581-7.77 4.116 0 6.237 2.52 6.825 4.935l-2.73.861c-.357-1.428-1.512-3.003-4.095-3.003-2.226 0-4.578 1.596-4.578 4.977 0 3.171 2.226 4.914 4.62 4.914 2.541 0 3.78-1.659 4.179-3.045l2.709.819c-.567 2.289-2.709 5.061-6.888 5.061zM966.93 476c-.042-.21-.084-.693-.084-1.113-.567.966-1.764 1.386-2.856 1.386-2.499 0-3.927-1.827-3.927-4.074v-6.531h2.793v5.964c0 1.155.588 2.079 1.89 2.079 1.239 0 1.953-.84 1.953-2.037v-6.006h2.793v8.463c0 .798.063 1.512.105 1.869h-2.667zm4.662-2.877l2.394-.525c.063.819.672 1.575 1.89 1.575.924 0 1.365-.483 1.365-1.029 0-.462-.315-.84-1.113-1.008l-1.365-.315c-1.995-.441-2.898-1.638-2.898-3.087 0-1.848 1.638-3.381 3.864-3.381 2.94 0 3.927 1.869 4.053 2.982l-2.331.525c-.084-.609-.525-1.386-1.701-1.386-.735 0-1.323.441-1.323 1.029 0 .504.378.819.945.924l1.47.315c2.037.42 3.066 1.659 3.066 3.171 0 1.68-1.302 3.402-4.011 3.402-3.108 0-4.179-2.016-4.305-3.192zm14.007-10.542v3.087h2.079v2.478h-2.079v4.326c0 .903.42 1.197 1.218 1.197.336 0 .714-.042.861-.084v2.31c-.252.105-.756.252-1.575.252-2.016 0-3.276-1.197-3.276-3.192v-4.809h-1.869v-2.478h.525c1.092 0 1.596-.714 1.596-1.638v-1.449h2.52zm9.03 11.193c1.365 0 2.625-.987 2.625-2.94 0-1.953-1.26-2.94-2.625-2.94s-2.625.987-2.625 2.94c0 1.932 1.26 2.94 2.625 2.94zm0-8.421c3.087 0 5.418 2.289 5.418 5.481 0 3.171-2.331 5.481-5.418 5.481s-5.418-2.31-5.418-5.481c0-3.192 2.331-5.481 5.418-5.481zM1005.045 476h-2.793v-10.332h2.667v1.26c.567-1.008 1.89-1.554 3.024-1.554 1.407 0 2.541.609 3.066 1.722.819-1.26 1.911-1.722 3.276-1.722 1.911 0 3.738 1.155 3.738 3.927V476h-2.709v-6.132c0-1.113-.546-1.953-1.827-1.953-1.197 0-1.911.924-1.911 2.037V476h-2.772v-6.132c0-1.113-.567-1.953-1.827-1.953-1.218 0-1.932.903-1.932 2.037V476zm-49.7385 27.99h-2.73v-5.019c-.483.777-1.512 1.281-2.877 1.281-2.94 0-5.04-2.331-5.04-5.439 0-3.024 1.953-5.397 4.956-5.397 1.806 0 2.73.861 3.024 1.449v-1.197h2.667v14.322zm-7.833-9.177c0 1.848 1.134 2.94 2.562 2.94s2.562-1.092 2.562-2.94c0-1.848-1.134-2.898-2.562-2.898s-2.562 1.05-2.562 2.898zm17.493 5.187c-.042-.21-.084-.693-.084-1.113-.567.966-1.764 1.386-2.856 1.386-2.499 0-3.927-1.827-3.927-4.074v-6.531h2.793v5.964c0 1.155.588 2.079 1.89 2.079 1.239 0 1.953-.84 1.953-2.037v-6.006h2.793v8.463c0 .798.063 1.512.105 1.869h-2.667zm7.581-6.342h4.62c-.042-1.029-.714-2.037-2.31-2.037-1.449 0-2.247 1.092-2.31 2.037zm4.893 2.688l2.331.693c-.525 1.785-2.163 3.276-4.704 3.276-2.835 0-5.334-2.037-5.334-5.523 0-3.297 2.436-5.439 5.082-5.439 3.192 0 5.103 2.037 5.103 5.355 0 .399-.042.819-.042.861h-7.392c.063 1.365 1.218 2.352 2.604 2.352 1.302 0 2.016-.651 2.352-1.575zm10.983-6.72v2.814c-.315-.063-.588-.084-.84-.084-1.428 0-2.667.693-2.667 2.919V500h-2.793v-10.332h2.709v1.533c.63-1.365 2.058-1.617 2.94-1.617.231 0 .441.021.651.042zm5.481 14.448h-2.961l2.436-5.376-4.389-9.03h3.129l2.751 6.048 2.541-6.048h2.982l-6.489 14.406zm16.17-10.017V500h-2.793v-10.332h2.709v1.281c.63-1.071 1.869-1.554 2.982-1.554 2.562 0 3.738 1.827 3.738 4.095V500h-2.793v-6.027c0-1.155-.567-2.058-1.911-2.058-1.218 0-1.932.945-1.932 2.142z"/></g></g><g fill-rule="nonzero"><path fill="#000" fill-opacity=".12" d="M494.2555408 194H633.744459c3.566075 0 4.85922.37130244 6.162924 1.06853082 1.303704.69722837 2.326858 1.72038266 3.024086 3.02408637.697229 1.3037037 1.068531 2.59684865 1.068531 6.16292361v43.4889184c0 3.566075-.371302 4.8592199-1.068531 6.1629236-.697228 1.3037037-1.720382 2.326858-3.024086 3.0240864C638.603679 257.6286976 637.310534 258 633.744459 258H494.2555408c-3.56607496 0-4.85921991-.3713024-6.16292361-1.0685308-1.30370371-.6972284-2.326858-1.7203827-3.02408637-3.0240864C484.37130244 252.6036791 484 251.3105342 484 247.7444592v-43.4889184c0-3.56607496.37130244-4.85921991 1.06853082-6.16292361.69722837-1.30370371 1.72038266-2.326858 3.02408637-3.02408637C489.39632089 194.37130244 490.68946584 194 494.2555408 194z"/><path fill="#002F62" d="M534.575 220.315c-4.158 0-7.623-3.003-7.623-7.749 0-4.746 3.591-7.77 7.581-7.77 4.116 0 6.237 2.52 6.825 4.935l-2.73.861c-.357-1.428-1.512-3.003-4.095-3.003-2.226 0-4.578 1.596-4.578 4.977 0 3.171 2.226 4.914 4.62 4.914 2.541 0 3.78-1.659 4.179-3.045l2.709.819c-.567 2.289-2.709 5.061-6.888 5.061zM550.43 220c-.042-.21-.084-.693-.084-1.113-.567.966-1.764 1.386-2.856 1.386-2.499 0-3.927-1.827-3.927-4.074v-6.531h2.793v5.964c0 1.155.588 2.079 1.89 2.079 1.239 0 1.953-.84 1.953-2.037v-6.006h2.793v8.463c0 .798.063 1.512.105 1.869h-2.667zm4.662-2.877l2.394-.525c.063.819.672 1.575 1.89 1.575.924 0 1.365-.483 1.365-1.029 0-.462-.315-.84-1.113-1.008l-1.365-.315c-1.995-.441-2.898-1.638-2.898-3.087 0-1.848 1.638-3.381 3.864-3.381 2.94 0 3.927 1.869 4.053 2.982l-2.331.525c-.084-.609-.525-1.386-1.701-1.386-.735 0-1.323.441-1.323 1.029 0 .504.378.819.945.924l1.47.315c2.037.42 3.066 1.659 3.066 3.171 0 1.68-1.302 3.402-4.011 3.402-3.108 0-4.179-2.016-4.305-3.192zm14.007-10.542v3.087h2.079v2.478h-2.079v4.326c0 .903.42 1.197 1.218 1.197.336 0 .714-.042.861-.084v2.31c-.252.105-.756.252-1.575.252-2.016 0-3.276-1.197-3.276-3.192v-4.809h-1.869v-2.478h.525c1.092 0 1.596-.714 1.596-1.638v-1.449h2.52zm9.03 11.193c1.365 0 2.625-.987 2.625-2.94 0-1.953-1.26-2.94-2.625-2.94s-2.625.987-2.625 2.94c0 1.932 1.26 2.94 2.625 2.94zm0-8.421c3.087 0 5.418 2.289 5.418 5.481 0 3.171-2.331 5.481-5.418 5.481s-5.418-2.31-5.418-5.481c0-3.192 2.331-5.481 5.418-5.481zM588.545 220h-2.793v-10.332h2.667v1.26c.567-1.008 1.89-1.554 3.024-1.554 1.407 0 2.541.609 3.066 1.722.819-1.26 1.911-1.722 3.276-1.722 1.911 0 3.738 1.155 3.738 3.927V220h-2.709v-6.132c0-1.113-.546-1.953-1.827-1.953-1.197 0-1.911.924-1.911 2.037V220h-2.772v-6.132c0-1.113-.567-1.953-1.827-1.953-1.218 0-1.932.903-1.932 2.037V220zm-72.6705 24h-2.709v-15.204h2.751v6.006c.462-.735 1.596-1.407 3.129-1.407 3.024 0 4.767 2.331 4.767 5.397 0 3.129-1.932 5.46-4.872 5.46-1.428 0-2.52-.63-3.066-1.512V244zm5.145-5.187c0-1.89-1.134-2.919-2.562-2.919-1.407 0-2.583 1.029-2.583 2.919 0 1.869 1.176 2.94 2.583 2.94 1.428 0 2.562-1.05 2.562-2.94zm7.791 5.187h-2.793v-15.204h2.793V244zm7.623-2.226c1.365 0 2.625-.987 2.625-2.94 0-1.953-1.26-2.94-2.625-2.94s-2.625.987-2.625 2.94c0 1.932 1.26 2.94 2.625 2.94zm0-8.421c3.087 0 5.418 2.289 5.418 5.481 0 3.171-2.331 5.481-5.418 5.481s-5.418-2.31-5.418-5.481c0-3.192 2.331-5.481 5.418-5.481zm12.264 2.583c-1.428 0-2.625 1.029-2.625 2.898 0 1.869 1.218 2.919 2.646 2.919s2.142-.945 2.373-1.743l2.457.819c-.462 1.722-2.079 3.486-4.83 3.486-3.045 0-5.439-2.31-5.439-5.481 0-3.192 2.352-5.481 5.355-5.481 2.814 0 4.41 1.743 4.851 3.486l-2.499.84c-.252-.861-.903-1.743-2.289-1.743zm16.926-2.268l-4.137 4.347 4.221 5.985h-3.423l-2.73-3.948-1.155 1.218V244h-2.793v-15.204h2.793v8.715l3.57-3.843h3.654zm16.653 0L578.2655 244h-2.793l-4.221-10.332h3.066l2.562 6.93 2.457-6.93h2.94zm4.494 10.332h-2.793v-10.332h2.793V244zm-3.129-13.713c0-.966.777-1.743 1.722-1.743.966 0 1.722.777 1.722 1.743 0 .924-.756 1.701-1.722 1.701-.945 0-1.722-.777-1.722-1.701zm8.148 7.371h4.62c-.042-1.029-.714-2.037-2.31-2.037-1.449 0-2.247 1.092-2.31 2.037zm4.893 2.688l2.331.693c-.525 1.785-2.163 3.276-4.704 3.276-2.835 0-5.334-2.037-5.334-5.523 0-3.297 2.436-5.439 5.082-5.439 3.192 0 5.103 2.037 5.103 5.355 0 .399-.042.819-.042.861h-7.392c.063 1.365 1.218 2.352 2.604 2.352 1.302 0 2.016-.651 2.352-1.575zm10.542-6.678h2.94l2.226 6.657 1.911-6.657h2.772L613.8395 244h-2.793l-2.415-7.056-2.373 7.056h-2.835l-3.297-10.332h2.94l1.911 6.636 2.247-6.636z"/><path fill="#000" fill-opacity=".12" d="M686.2555408 194H825.744459c3.566075 0 4.85922.37130244 6.162924 1.06853082 1.303704.69722837 2.326858 1.72038266 3.024086 3.02408637.697229 1.3037037 1.068531 2.59684865 1.068531 6.16292361v43.4889184c0 3.566075-.371302 4.8592199-1.068531 6.1629236-.697228 1.3037037-1.720382 2.326858-3.024086 3.0240864C830.603679 257.6286976 829.310534 258 825.744459 258H686.2555408c-3.56607496 0-4.85921991-.3713024-6.16292361-1.0685308-1.30370371-.6972284-2.326858-1.7203827-3.02408637-3.0240864C676.37130245 252.6036791 676 251.3105342 676 247.7444592v-43.4889184c0-3.56607496.37130245-4.85921991 1.06853082-6.16292361.69722837-1.30370371 1.72038266-2.326858 3.02408637-3.02408637C681.39632089 194.37130244 682.68946584 194 686.2555408 194z"/><path fill="#002F62" d="M726.075 220.315c-4.158 0-7.623-3.003-7.623-7.749 0-4.746 3.591-7.77 7.581-7.77 4.116 0 6.237 2.52 6.825 4.935l-2.73.861c-.357-1.428-1.512-3.003-4.095-3.003-2.226 0-4.578 1.596-4.578 4.977 0 3.171 2.226 4.914 4.62 4.914 2.541 0 3.78-1.659 4.179-3.045l2.709.819c-.567 2.289-2.709 5.061-6.888 5.061zM741.93 220c-.042-.21-.084-.693-.084-1.113-.567.966-1.764 1.386-2.856 1.386-2.499 0-3.927-1.827-3.927-4.074v-6.531h2.793v5.964c0 1.155.588 2.079 1.89 2.079 1.239 0 1.953-.84 1.953-2.037v-6.006h2.793v8.463c0 .798.063 1.512.105 1.869h-2.667zm4.662-2.877l2.394-.525c.063.819.672 1.575 1.89 1.575.924 0 1.365-.483 1.365-1.029 0-.462-.315-.84-1.113-1.008l-1.365-.315c-1.995-.441-2.898-1.638-2.898-3.087 0-1.848 1.638-3.381 3.864-3.381 2.94 0 3.927 1.869 4.053 2.982l-2.331.525c-.084-.609-.525-1.386-1.701-1.386-.735 0-1.323.441-1.323 1.029 0 .504.378.819.945.924l1.47.315c2.037.42 3.066 1.659 3.066 3.171 0 1.68-1.302 3.402-4.011 3.402-3.108 0-4.179-2.016-4.305-3.192zm14.007-10.542v3.087h2.079v2.478h-2.079v4.326c0 .903.42 1.197 1.218 1.197.336 0 .714-.042.861-.084v2.31c-.252.105-.756.252-1.575.252-2.016 0-3.276-1.197-3.276-3.192v-4.809h-1.869v-2.478h.525c1.092 0 1.596-.714 1.596-1.638v-1.449h2.52zm9.03 11.193c1.365 0 2.625-.987 2.625-2.94 0-1.953-1.26-2.94-2.625-2.94s-2.625.987-2.625 2.94c0 1.932 1.26 2.94 2.625 2.94zm0-8.421c3.087 0 5.418 2.289 5.418 5.481 0 3.171-2.331 5.481-5.418 5.481s-5.418-2.31-5.418-5.481c0-3.192 2.331-5.481 5.418-5.481zM780.045 220h-2.793v-10.332h2.667v1.26c.567-1.008 1.89-1.554 3.024-1.554 1.407 0 2.541.609 3.066 1.722.819-1.26 1.911-1.722 3.276-1.722 1.911 0 3.738 1.155 3.738 3.927V220h-2.709v-6.132c0-1.113-.546-1.953-1.827-1.953-1.197 0-1.911.924-1.911 2.037V220h-2.772v-6.132c0-1.113-.567-1.953-1.827-1.953-1.218 0-1.932.903-1.932 2.037V220zm-62.2545 24h-9.534v-14.889h2.898v12.117h6.636V244zm1.386-2.814c0-1.848 1.365-2.877 3.087-3.129l2.541-.378c.588-.084.777-.378.777-.735 0-.735-.567-1.344-1.743-1.344-1.218 0-1.89.777-1.974 1.68l-2.478-.525c.168-1.617 1.659-3.402 4.431-3.402 3.276 0 4.494 1.848 4.494 3.927v5.082c0 .546.063 1.281.126 1.638h-2.562c-.063-.273-.105-.84-.105-1.239-.525.819-1.512 1.533-3.045 1.533-2.205 0-3.549-1.491-3.549-3.108zm4.137 1.029c1.176 0 2.268-.567 2.268-2.394v-.462l-2.331.357c-.714.105-1.281.504-1.281 1.302 0 .609.441 1.197 1.344 1.197zm11.382 5.859h-2.961l2.436-5.376-4.389-9.03h3.129l2.751 6.048 2.541-6.048h2.982l-6.489 14.406zm12.831-6.3c1.365 0 2.625-.987 2.625-2.94 0-1.953-1.26-2.94-2.625-2.94s-2.625.987-2.625 2.94c0 1.932 1.26 2.94 2.625 2.94zm0-8.421c3.087 0 5.418 2.289 5.418 5.481 0 3.171-2.331 5.481-5.418 5.481s-5.418-2.31-5.418-5.481c0-3.192 2.331-5.481 5.418-5.481zM761.9115 244c-.042-.21-.084-.693-.084-1.113-.567.966-1.764 1.386-2.856 1.386-2.499 0-3.927-1.827-3.927-4.074v-6.531h2.793v5.964c0 1.155.588 2.079 1.89 2.079 1.239 0 1.953-.84 1.953-2.037v-6.006h2.793v8.463c0 .798.063 1.512.105 1.869h-2.667zm8.988-13.419v3.087h2.079v2.478h-2.079v4.326c0 .903.42 1.197 1.218 1.197.336 0 .714-.042.861-.084v2.31c-.252.105-.756.252-1.575.252-2.016 0-3.276-1.197-3.276-3.192v-4.809h-1.869v-2.478h.525c1.092 0 1.596-.714 1.596-1.638v-1.449h2.52zm13.02 0v3.087h2.079v2.478h-2.079v4.326c0 .903.42 1.197 1.218 1.197.336 0 .714-.042.861-.084v2.31c-.252.105-.756.252-1.575.252-2.016 0-3.276-1.197-3.276-3.192v-4.809h-1.869v-2.478h.525c1.092 0 1.596-.714 1.596-1.638v-1.449h2.52zm7.182 17.409h-2.793v-14.322h2.709v1.26c.462-.798 1.617-1.491 3.171-1.491 3.024 0 4.767 2.31 4.767 5.376 0 3.129-1.953 5.439-4.872 5.439-1.428 0-2.478-.567-2.982-1.26v4.998zm5.103-9.156c0-1.827-1.134-2.898-2.562-2.898s-2.583 1.071-2.583 2.898c0 1.827 1.155 2.919 2.583 2.919 1.428 0 2.562-1.071 2.562-2.919zm7.749 5.166h-2.793v-15.204h2.793V244z"/><g><path fill="#000" fill-opacity=".12" d="M910.2555408 194h139.4889182c3.566075 0 4.85922.37130244 6.162924 1.06853082 1.303704.69722837 2.326858 1.72038266 3.024086 3.02408637.697229 1.3037037 1.068531 2.59684865 1.068531 6.16292361v43.4889184c0 3.566075-.371302 4.8592199-1.068531 6.1629236-.697228 1.3037037-1.720382 2.326858-3.024086 3.0240864-1.303704.6972284-2.596849 1.0685308-6.162924 1.0685308H910.2555408c-3.56607496 0-4.85921991-.3713024-6.16292361-1.0685308-1.30370371-.6972284-2.326858-1.7203827-3.02408637-3.0240864C900.37130245 252.6036791 900 251.3105342 900 247.7444592v-43.4889184c0-3.56607496.37130245-4.85921991 1.06853082-6.16292361.69722837-1.30370371 1.72038266-2.326858 3.02408637-3.02408637C905.39632089 194.37130244 906.68946584 194 910.2555408 194z"/><path fill="#002F62" d="M950.075 220.315c-4.158 0-7.623-3.003-7.623-7.749 0-4.746 3.591-7.77 7.581-7.77 4.116 0 6.237 2.52 6.825 4.935l-2.73.861c-.357-1.428-1.512-3.003-4.095-3.003-2.226 0-4.578 1.596-4.578 4.977 0 3.171 2.226 4.914 4.62 4.914 2.541 0 3.78-1.659 4.179-3.045l2.709.819c-.567 2.289-2.709 5.061-6.888 5.061zM965.93 220c-.042-.21-.084-.693-.084-1.113-.567.966-1.764 1.386-2.856 1.386-2.499 0-3.927-1.827-3.927-4.074v-6.531h2.793v5.964c0 1.155.588 2.079 1.89 2.079 1.239 0 1.953-.84 1.953-2.037v-6.006h2.793v8.463c0 .798.063 1.512.105 1.869h-2.667zm4.662-2.877l2.394-.525c.063.819.672 1.575 1.89 1.575.924 0 1.365-.483 1.365-1.029 0-.462-.315-.84-1.113-1.008l-1.365-.315c-1.995-.441-2.898-1.638-2.898-3.087 0-1.848 1.638-3.381 3.864-3.381 2.94 0 3.927 1.869 4.053 2.982l-2.331.525c-.084-.609-.525-1.386-1.701-1.386-.735 0-1.323.441-1.323 1.029 0 .504.378.819.945.924l1.47.315c2.037.42 3.066 1.659 3.066 3.171 0 1.68-1.302 3.402-4.011 3.402-3.108 0-4.179-2.016-4.305-3.192zm14.007-10.542v3.087h2.079v2.478h-2.079v4.326c0 .903.42 1.197 1.218 1.197.336 0 .714-.042.861-.084v2.31c-.252.105-.756.252-1.575.252-2.016 0-3.276-1.197-3.276-3.192v-4.809h-1.869v-2.478h.525c1.092 0 1.596-.714 1.596-1.638v-1.449h2.52zm9.03 11.193c1.365 0 2.625-.987 2.625-2.94 0-1.953-1.26-2.94-2.625-2.94s-2.625.987-2.625 2.94c0 1.932 1.26 2.94 2.625 2.94zm0-8.421c3.087 0 5.418 2.289 5.418 5.481 0 3.171-2.331 5.481-5.418 5.481s-5.418-2.31-5.418-5.481c0-3.192 2.331-5.481 5.418-5.481zM1004.045 220h-2.793v-10.332h2.667v1.26c.567-1.008 1.89-1.554 3.024-1.554 1.407 0 2.541.609 3.066 1.722.819-1.26 1.911-1.722 3.276-1.722 1.911 0 3.738 1.155 3.738 3.927V220h-2.709v-6.132c0-1.113-.546-1.953-1.827-1.953-1.197 0-1.911.924-1.911 2.037V220h-2.772v-6.132c0-1.113-.567-1.953-1.827-1.953-1.218 0-1.932.903-1.932 2.037V220zm-55.1565 24h-9.534v-14.889h2.898v12.117h6.636V244zm1.386-2.814c0-1.848 1.365-2.877 3.087-3.129l2.541-.378c.588-.084.777-.378.777-.735 0-.735-.567-1.344-1.743-1.344-1.218 0-1.89.777-1.974 1.68l-2.478-.525c.168-1.617 1.659-3.402 4.431-3.402 3.276 0 4.494 1.848 4.494 3.927v5.082c0 .546.063 1.281.126 1.638h-2.562c-.063-.273-.105-.84-.105-1.239-.525.819-1.512 1.533-3.045 1.533-2.205 0-3.549-1.491-3.549-3.108zm4.137 1.029c1.176 0 2.268-.567 2.268-2.394v-.462l-2.331.357c-.714.105-1.281.504-1.281 1.302 0 .609.441 1.197 1.344 1.197zm11.382 5.859h-2.961l2.436-5.376-4.389-9.03h3.129l2.751 6.048 2.541-6.048h2.982l-6.489 14.406zm12.831-6.3c1.365 0 2.625-.987 2.625-2.94 0-1.953-1.26-2.94-2.625-2.94s-2.625.987-2.625 2.94c0 1.932 1.26 2.94 2.625 2.94zm0-8.421c3.087 0 5.418 2.289 5.418 5.481 0 3.171-2.331 5.481-5.418 5.481s-5.418-2.31-5.418-5.481c0-3.192 2.331-5.481 5.418-5.481zM993.0095 244c-.042-.21-.084-.693-.084-1.113-.567.966-1.764 1.386-2.856 1.386-2.499 0-3.927-1.827-3.927-4.074v-6.531h2.793v5.964c0 1.155.588 2.079 1.89 2.079 1.239 0 1.953-.84 1.953-2.037v-6.006h2.793v8.463c0 .798.063 1.512.105 1.869h-2.667zm8.988-13.419v3.087h2.079v2.478h-2.079v4.326c0 .903.42 1.197 1.218 1.197.336 0 .714-.042.861-.084v2.31c-.252.105-.756.252-1.575.252-2.016 0-3.276-1.197-3.276-3.192v-4.809h-1.869v-2.478h.525c1.092 0 1.596-.714 1.596-1.638v-1.449h2.52zm12.369 7.476V244h-2.793v-10.332h2.709v1.281c.63-1.071 1.869-1.554 2.982-1.554 2.562 0 3.738 1.827 3.738 4.095V244h-2.793v-6.027c0-1.155-.567-2.058-1.911-2.058-1.218 0-1.932.945-1.932 2.142z"/></g></g><g fill="#007AFF"><path fill-opacity=".08" d="M46.2555408 290H1049.74446c3.56607 0 4.85922.37130244 6.16292 1.06853082 1.30371.69722837 2.32686 1.72038266 3.02409 3.02408637.69723 1.3037037 1.06853 2.59684865 1.06853 6.16292361V407.744459c0 3.566075-.3713 4.85922-1.06853 6.162924-.69723 1.303704-1.72038 2.326858-3.02409 3.024086-1.3037.697229-2.59685 1.068531-6.16292 1.068531H46.2555408c-3.56607496 0-4.85921991-.371302-6.16292361-1.068531-1.30370371-.697228-2.326858-1.720382-3.02408637-3.024086C36.37130245 412.603679 36 411.310534 36 407.744459V300.2555408c0-3.56607496.37130245-4.85921991 1.06853082-6.16292361.69722837-1.30370371 1.72038266-2.326858 3.02408637-3.02408637C41.39632089 290.37130244 42.68946584 290 46.2555408 290z"/><path fill-rule="nonzero" d="M489.5625 365h-11.35v-17.725h3.45V361.7h7.9v3.3zm14.875 0l-1.475-4.05h-7.2l-1.475 4.05h-3.65l6.8-17.725h4l6.75 17.725h-3.75zm-5.075-13.9l-2.45 6.7h4.9l-2.45-6.7zm13.5 6.45l-6.175-10.275h4.05l3.975 7.025 3.975-7.025h3.875l-6.25 10.275V365h-3.45v-7.45zm13.3-1.425c0 4 2.8 5.9 5.525 5.9 2.75 0 5.55-1.9 5.55-5.9s-2.8-5.9-5.55-5.9c-2.725 0-5.525 1.9-5.525 5.9zm-3.575.025c0-5.725 4.3-9.25 9.1-9.25 4.825 0 9.125 3.525 9.125 9.25 0 5.7-4.3 9.225-9.125 9.225-4.8 0-9.1-3.525-9.1-9.225zm27.85 9.25c-3.775 0-6.8-2.325-6.8-6.675v-11.45h3.45v11.2c0 2.325 1.3 3.55 3.35 3.55 2.1 0 3.375-1.225 3.375-3.55v-11.2h3.45v11.45c0 4.35-3.025 6.675-6.825 6.675zm23.825-14.85h-5.6V365h-3.475v-14.45h-5.6v-3.275h14.675v3.275zm14.35.95l-3.1.95c-.175-.975-.975-2.5-3.225-2.5-1.675 0-2.775 1.075-2.775 2.25 0 .975.625 1.75 1.925 2l2.475.475c3.225.625 4.95 2.725 4.95 5.225 0 2.725-2.275 5.475-6.4 5.475-4.7 0-6.775-3.025-7.05-5.55l3.2-.85c.15 1.75 1.375 3.325 3.875 3.325 1.85 0 2.875-.925 2.875-2.175 0-1.025-.775-1.825-2.15-2.1l-2.475-.5c-2.825-.575-4.65-2.4-4.65-5.075 0-3.15 2.825-5.55 6.175-5.55 4.3 0 5.95 2.6 6.35 4.6zm15.975 13.9c-3.775 0-6.8-2.325-6.8-6.675v-11.45h3.45v11.2c0 2.325 1.3 3.55 3.35 3.55 2.1 0 3.375-1.225 3.375-3.55v-11.2h3.45v11.45c0 4.35-3.025 6.675-6.825 6.675zm14.2-.4h-3.5v-17.725h3.5V365z"/></g><g fill="#007AFF"><path fill-opacity=".08" d="M46.2555408 593H185.744459c3.566075 0 4.85922.37130244 6.162924 1.06853082 1.303704.69722837 2.326858 1.72038266 3.024086 3.02408637.697229 1.3037037 1.068531 2.59684865 1.068531 6.16292361v75.4889184c0 3.566075-.371302 4.8592199-1.068531 6.1629236-.697228 1.3037037-1.720382 2.326858-3.024086 3.0240864C190.603679 688.6286976 189.310534 689 185.744459 689H46.2555408c-3.56607496 0-4.85921991-.3713024-6.16292361-1.0685308-1.30370371-.6972284-2.326858-1.7203827-3.02408637-3.0240864C36.37130244 683.6036791 36 682.3105342 36 678.7444592v-75.4889184c0-3.56607496.37130244-4.85921991 1.06853082-6.16292361.69722837-1.30370371 1.72038266-2.326858 3.02408637-3.02408637C41.39632089 593.37130244 42.68946584 593 46.2555408 593z"/><path fill-rule="nonzero" d="M63.0235 628.658h4.62c-.042-1.029-.714-2.037-2.31-2.037-1.449 0-2.247 1.092-2.31 2.037zm4.893 2.688l2.331.693c-.525 1.785-2.163 3.276-4.704 3.276-2.835 0-5.334-2.037-5.334-5.523 0-3.297 2.436-5.439 5.082-5.439 3.192 0 5.103 2.037 5.103 5.355 0 .399-.042.819-.042.861h-7.392c.063 1.365 1.218 2.352 2.604 2.352 1.302 0 2.016-.651 2.352-1.575zM83.6455 635h-11.718v-2.814l7.749-9.324h-7.476v-2.751h11.34v2.709l-7.875 9.408h7.98V635zm10.71-8.106h2.289c1.449 0 2.331-.84 2.331-2.121 0-1.323-.882-2.142-2.331-2.142h-2.289v4.263zm2.646 2.499h-2.667V635h-2.898v-14.889h5.565c2.94 0 4.893 1.953 4.893 4.641 0 2.709-1.953 4.641-4.893 4.641zm9.597 5.607h-2.793v-15.204h2.793V635zm2.289-2.814c0-1.848 1.365-2.877 3.087-3.129l2.541-.378c.588-.084.777-.378.777-.735 0-.735-.567-1.344-1.743-1.344-1.218 0-1.89.777-1.974 1.68l-2.478-.525c.168-1.617 1.659-3.402 4.431-3.402 3.276 0 4.494 1.848 4.494 3.927v5.082c0 .546.063 1.281.126 1.638h-2.562c-.063-.273-.105-.84-.105-1.239-.525.819-1.512 1.533-3.045 1.533-2.205 0-3.549-1.491-3.549-3.108zm4.137 1.029c1.176 0 2.268-.567 2.268-2.394v-.462l-2.331.357c-.714.105-1.281.504-1.281 1.302 0 .609.441 1.197 1.344 1.197zm11.193-11.634v3.087h2.079v2.478h-2.079v4.326c0 .903.42 1.197 1.218 1.197.336 0 .714-.042.861-.084v2.31c-.252.105-.756.252-1.575.252-2.016 0-3.276-1.197-3.276-3.192v-4.809h-1.869v-2.478h.525c1.092 0 1.596-.714 1.596-1.638v-1.449h2.52zm9.177.525c-.63 0-1.449.273-1.449 1.428v1.134h2.331v2.394h-2.331V635h-2.814v-7.938h-1.722v-2.394h1.722v-1.176c0-2.331 1.47-3.843 3.759-3.843.588 0 1.155.105 1.386.21v2.352c-.147-.042-.42-.105-.882-.105zm7.098 10.668c1.365 0 2.625-.987 2.625-2.94 0-1.953-1.26-2.94-2.625-2.94s-2.625.987-2.625 2.94c0 1.932 1.26 2.94 2.625 2.94zm0-8.421c3.087 0 5.418 2.289 5.418 5.481 0 3.171-2.331 5.481-5.418 5.481s-5.418-2.31-5.418-5.481c0-3.192 2.331-5.481 5.418-5.481zm13.923.273v2.814c-.315-.063-.588-.084-.84-.084-1.428 0-2.667.693-2.667 2.919V635h-2.793v-10.332h2.709v1.533c.63-1.365 2.058-1.617 2.94-1.617.231 0 .441.021.651.042zm4.767 10.374h-2.793v-10.332h2.667v1.26c.567-1.008 1.89-1.554 3.024-1.554 1.407 0 2.541.609 3.066 1.722.819-1.26 1.911-1.722 3.276-1.722 1.911 0 3.738 1.155 3.738 3.927V635h-2.709v-6.132c0-1.113-.546-1.953-1.827-1.953-1.197 0-1.911.924-1.911 2.037V635h-2.772v-6.132c0-1.113-.567-1.953-1.827-1.953-1.218 0-1.932.903-1.932 2.037V635zM66.898 659h-2.793v-10.332h2.793V659zm-3.129-13.713c0-.966.777-1.743 1.722-1.743.966 0 1.722.777 1.722 1.743 0 .924-.756 1.701-1.722 1.701-.945 0-1.722-.777-1.722-1.701zm8.904 7.77V659H69.88v-10.332h2.709v1.281c.63-1.071 1.869-1.554 2.982-1.554 2.562 0 3.738 1.827 3.738 4.095V659h-2.793v-6.027c0-1.155-.567-2.058-1.911-2.058-1.218 0-1.932.945-1.932 2.142zm12.915-7.476v3.087h2.079v2.478h-2.079v4.326c0 .903.42 1.197 1.218 1.197.336 0 .714-.042.861-.084v2.31c-.252.105-.756.252-1.575.252-2.016 0-3.276-1.197-3.276-3.192v-4.809h-1.869v-2.478h.525c1.092 0 1.596-.714 1.596-1.638v-1.449h2.52zm6.384 7.077h4.62c-.042-1.029-.714-2.037-2.31-2.037-1.449 0-2.247 1.092-2.31 2.037zm4.893 2.688l2.331.693c-.525 1.785-2.163 3.276-4.704 3.276-2.835 0-5.334-2.037-5.334-5.523 0-3.297 2.436-5.439 5.082-5.439 3.192 0 5.103 2.037 5.103 5.355 0 .399-.042.819-.042.861h-7.392c.063 1.365 1.218 2.352 2.604 2.352 1.302 0 2.016-.651 2.352-1.575zm3.948 4.221l2.52-.672c.189 1.134 1.092 1.953 2.415 1.953 1.764 0 2.751-.882 2.751-2.877v-.756c-.42.672-1.386 1.323-2.877 1.323-2.751 0-4.809-2.121-4.809-5.019 0-2.73 1.974-5.04 4.809-5.04 1.638 0 2.583.714 2.94 1.407v-1.218h2.688v9.219c0 2.835-1.533 5.418-5.418 5.418-2.835 0-4.725-1.764-5.019-3.738zm5.292-3.423c1.428 0 2.436-1.029 2.436-2.625s-1.092-2.604-2.436-2.604c-1.386 0-2.478 1.008-2.478 2.604 0 1.617 1.029 2.625 2.478 2.625zm14.28-7.518v2.814c-.315-.063-.588-.084-.84-.084-1.428 0-2.667.693-2.667 2.919V659h-2.793v-10.332h2.709v1.533c.63-1.365 2.058-1.617 2.94-1.617.231 0 .441.021.651.042zm1.407 7.56c0-1.848 1.365-2.877 3.087-3.129l2.541-.378c.588-.084.777-.378.777-.735 0-.735-.567-1.344-1.743-1.344-1.218 0-1.89.777-1.974 1.68l-2.478-.525c.168-1.617 1.659-3.402 4.431-3.402 3.276 0 4.494 1.848 4.494 3.927v5.082c0 .546.063 1.281.126 1.638h-2.562c-.063-.273-.105-.84-.105-1.239-.525.819-1.512 1.533-3.045 1.533-2.205 0-3.549-1.491-3.549-3.108zm4.137 1.029c1.176 0 2.268-.567 2.268-2.394v-.462l-2.331.357c-.714.105-1.281.504-1.281 1.302 0 .609.441 1.197 1.344 1.197zm11.193-11.634v3.087h2.079v2.478h-2.079v4.326c0 .903.42 1.197 1.218 1.197.336 0 .714-.042.861-.084v2.31c-.252.105-.756.252-1.575.252-2.016 0-3.276-1.197-3.276-3.192v-4.809h-1.869v-2.478h.525c1.092 0 1.596-.714 1.596-1.638v-1.449h2.52zM144.367 659h-2.793v-10.332h2.793V659zm-3.129-13.713c0-.966.777-1.743 1.722-1.743.966 0 1.722.777 1.722 1.743 0 .924-.756 1.701-1.722 1.701-.945 0-1.722-.777-1.722-1.701zm10.752 11.487c1.365 0 2.625-.987 2.625-2.94 0-1.953-1.26-2.94-2.625-2.94s-2.625.987-2.625 2.94c0 1.932 1.26 2.94 2.625 2.94zm0-8.421c3.087 0 5.418 2.289 5.418 5.481 0 3.171-2.331 5.481-5.418 5.481s-5.418-2.31-5.418-5.481c0-3.192 2.331-5.481 5.418-5.481zm10.416 4.704V659h-2.793v-10.332h2.709v1.281c.63-1.071 1.869-1.554 2.982-1.554 2.562 0 3.738 1.827 3.738 4.095V659h-2.793v-6.027c0-1.155-.567-2.058-1.911-2.058-1.218 0-1.932.945-1.932 2.142z"/></g><g fill="#007AFF"><path fill-opacity=".08" d="M237.2555408 593H376.744459c3.566075 0 4.85922.37130244 6.162924 1.06853082 1.303704.69722837 2.326858 1.72038266 3.024086 3.02408637.697229 1.3037037 1.068531 2.59684865 1.068531 6.16292361v75.4889184c0 3.566075-.371302 4.8592199-1.068531 6.1629236-.697228 1.3037037-1.720382 2.326858-3.024086 3.0240864C381.603679 688.6286976 380.310534 689 376.744459 689H237.2555408c-3.56607496 0-4.85921991-.3713024-6.16292361-1.0685308-1.30370371-.6972284-2.326858-1.7203827-3.02408637-3.0240864C227.37130244 683.6036791 227 682.3105342 227 678.7444592v-75.4889184c0-3.56607496.37130244-4.85921991 1.06853082-6.16292361.69722837-1.30370371 1.72038266-2.326858 3.02408637-3.02408637C232.39632089 593.37130244 233.68946584 593 237.2555408 593z"/><path fill-rule="nonzero" d="M289.9585 623.66l-2.604.798c-.147-.819-.819-2.1-2.709-2.1-1.407 0-2.331.903-2.331 1.89 0 .819.525 1.47 1.617 1.68l2.079.399c2.709.525 4.158 2.289 4.158 4.389 0 2.289-1.911 4.599-5.376 4.599-3.948 0-5.691-2.541-5.922-4.662l2.688-.714c.126 1.47 1.155 2.793 3.255 2.793 1.554 0 2.415-.777 2.415-1.827 0-.861-.651-1.533-1.806-1.764l-2.079-.42c-2.373-.483-3.906-2.016-3.906-4.263 0-2.646 2.373-4.662 5.187-4.662 3.612 0 4.998 2.184 5.334 3.864zm5.565 15.414h-2.961l2.436-5.376-4.389-9.03h3.129l2.751 6.048 2.541-6.048h2.982l-6.489 14.406zm10.983-4.074h-2.793v-15.204h2.793V635zm5.775 0h-2.793v-10.332h2.793V635zm-3.129-13.713c0-.966.777-1.743 1.722-1.743.966 0 1.722.777 1.722 1.743 0 .924-.756 1.701-1.722 1.701-.945 0-1.722-.777-1.722-1.701zM322.0255 635c-.042-.21-.084-.693-.084-1.113-.567.966-1.764 1.386-2.856 1.386-2.499 0-3.927-1.827-3.927-4.074v-6.531h2.793v5.964c0 1.155.588 2.079 1.89 2.079 1.239 0 1.953-.84 1.953-2.037v-6.006h2.793v8.463c0 .798.063 1.512.105 1.869h-2.667zm4.662-2.877l2.394-.525c.063.819.672 1.575 1.89 1.575.924 0 1.365-.483 1.365-1.029 0-.462-.315-.84-1.113-1.008l-1.365-.315c-1.995-.441-2.898-1.638-2.898-3.087 0-1.848 1.638-3.381 3.864-3.381 2.94 0 3.927 1.869 4.053 2.982l-2.331.525c-.084-.609-.525-1.386-1.701-1.386-.735 0-1.323.441-1.323 1.029 0 .504.378.819.945.924l1.47.315c2.037.42 3.066 1.659 3.066 3.171 0 1.68-1.302 3.402-4.011 3.402-3.108 0-4.179-2.016-4.305-3.192zM257.398 659h-2.793v-10.332h2.793V659zm-3.129-13.713c0-.966.777-1.743 1.722-1.743.966 0 1.722.777 1.722 1.743 0 .924-.756 1.701-1.722 1.701-.945 0-1.722-.777-1.722-1.701zm8.904 7.77V659h-2.793v-10.332h2.709v1.281c.63-1.071 1.869-1.554 2.982-1.554 2.562 0 3.738 1.827 3.738 4.095V659h-2.793v-6.027c0-1.155-.567-2.058-1.911-2.058-1.218 0-1.932.945-1.932 2.142zm12.915-7.476v3.087h2.079v2.478h-2.079v4.326c0 .903.42 1.197 1.218 1.197.336 0 .714-.042.861-.084v2.31c-.252.105-.756.252-1.575.252-2.016 0-3.276-1.197-3.276-3.192v-4.809h-1.869v-2.478h.525c1.092 0 1.596-.714 1.596-1.638v-1.449h2.52zm6.384 7.077h4.62c-.042-1.029-.714-2.037-2.31-2.037-1.449 0-2.247 1.092-2.31 2.037zm4.893 2.688l2.331.693c-.525 1.785-2.163 3.276-4.704 3.276-2.835 0-5.334-2.037-5.334-5.523 0-3.297 2.436-5.439 5.082-5.439 3.192 0 5.103 2.037 5.103 5.355 0 .399-.042.819-.042.861h-7.392c.063 1.365 1.218 2.352 2.604 2.352 1.302 0 2.016-.651 2.352-1.575zm3.948 4.221l2.52-.672c.189 1.134 1.092 1.953 2.415 1.953 1.764 0 2.751-.882 2.751-2.877v-.756c-.42.672-1.386 1.323-2.877 1.323-2.751 0-4.809-2.121-4.809-5.019 0-2.73 1.974-5.04 4.809-5.04 1.638 0 2.583.714 2.94 1.407v-1.218h2.688v9.219c0 2.835-1.533 5.418-5.418 5.418-2.835 0-4.725-1.764-5.019-3.738zm5.292-3.423c1.428 0 2.436-1.029 2.436-2.625s-1.092-2.604-2.436-2.604c-1.386 0-2.478 1.008-2.478 2.604 0 1.617 1.029 2.625 2.478 2.625zm14.28-7.518v2.814c-.315-.063-.588-.084-.84-.084-1.428 0-2.667.693-2.667 2.919V659h-2.793v-10.332h2.709v1.533c.63-1.365 2.058-1.617 2.94-1.617.231 0 .441.021.651.042zm1.407 7.56c0-1.848 1.365-2.877 3.087-3.129l2.541-.378c.588-.084.777-.378.777-.735 0-.735-.567-1.344-1.743-1.344-1.218 0-1.89.777-1.974 1.68l-2.478-.525c.168-1.617 1.659-3.402 4.431-3.402 3.276 0 4.494 1.848 4.494 3.927v5.082c0 .546.063 1.281.126 1.638h-2.562c-.063-.273-.105-.84-.105-1.239-.525.819-1.512 1.533-3.045 1.533-2.205 0-3.549-1.491-3.549-3.108zm4.137 1.029c1.176 0 2.268-.567 2.268-2.394v-.462l-2.331.357c-.714.105-1.281.504-1.281 1.302 0 .609.441 1.197 1.344 1.197zm11.193-11.634v3.087h2.079v2.478h-2.079v4.326c0 .903.42 1.197 1.218 1.197.336 0 .714-.042.861-.084v2.31c-.252.105-.756.252-1.575.252-2.016 0-3.276-1.197-3.276-3.192v-4.809h-1.869v-2.478h.525c1.092 0 1.596-.714 1.596-1.638v-1.449h2.52zM334.867 659h-2.793v-10.332h2.793V659zm-3.129-13.713c0-.966.777-1.743 1.722-1.743.966 0 1.722.777 1.722 1.743 0 .924-.756 1.701-1.722 1.701-.945 0-1.722-.777-1.722-1.701zm10.752 11.487c1.365 0 2.625-.987 2.625-2.94 0-1.953-1.26-2.94-2.625-2.94s-2.625.987-2.625 2.94c0 1.932 1.26 2.94 2.625 2.94zm0-8.421c3.087 0 5.418 2.289 5.418 5.481 0 3.171-2.331 5.481-5.418 5.481s-5.418-2.31-5.418-5.481c0-3.192 2.331-5.481 5.418-5.481zm10.416 4.704V659h-2.793v-10.332h2.709v1.281c.63-1.071 1.869-1.554 2.982-1.554 2.562 0 3.738 1.827 3.738 4.095V659h-2.793v-6.027c0-1.155-.567-2.058-1.911-2.058-1.218 0-1.932.945-1.932 2.142z"/></g><g fill="#007AFF"><path fill-opacity=".08" d="M686.2555408 593H825.744459c3.566075 0 4.85922.37130244 6.162924 1.06853082 1.303704.69722837 2.326858 1.72038266 3.024086 3.02408637.697229 1.3037037 1.068531 2.59684865 1.068531 6.16292361v75.4889184c0 3.566075-.371302 4.8592199-1.068531 6.1629236-.697228 1.3037037-1.720382 2.326858-3.024086 3.0240864C830.603679 688.6286976 829.310534 689 825.744459 689H686.2555408c-3.56607496 0-4.85921991-.3713024-6.16292361-1.0685308-1.30370371-.6972284-2.326858-1.7203827-3.02408637-3.0240864C676.37130245 683.6036791 676 682.3105342 676 678.7444592v-75.4889184c0-3.56607496.37130245-4.85921991 1.06853082-6.16292361.69722837-1.30370371 1.72038266-2.326858 3.02408637-3.02408637C681.39632089 593.37130244 682.68946584 593 686.2555408 593z"/><path fill-rule="nonzero" d="M712.3265 635.315c-4.158 0-7.623-3.003-7.623-7.749 0-4.746 3.591-7.77 7.581-7.77 4.116 0 6.237 2.52 6.825 4.935l-2.73.861c-.357-1.428-1.512-3.003-4.095-3.003-2.226 0-4.578 1.596-4.578 4.977 0 3.171 2.226 4.914 4.62 4.914 2.541 0 3.78-1.659 4.179-3.045l2.709.819c-.567 2.289-2.709 5.061-6.888 5.061zm13.377-2.541c1.365 0 2.625-.987 2.625-2.94 0-1.953-1.26-2.94-2.625-2.94s-2.625.987-2.625 2.94c0 1.932 1.26 2.94 2.625 2.94zm0-8.421c3.087 0 5.418 2.289 5.418 5.481 0 3.171-2.331 5.481-5.418 5.481s-5.418-2.31-5.418-5.481c0-3.192 2.331-5.481 5.418-5.481zm10.416 4.704V635h-2.793v-10.332h2.709v1.281c.63-1.071 1.869-1.554 2.982-1.554 2.562 0 3.738 1.827 3.738 4.095V635h-2.793v-6.027c0-1.155-.567-2.058-1.911-2.058-1.218 0-1.932.945-1.932 2.142zm12.915-7.476v3.087h2.079v2.478h-2.079v4.326c0 .903.42 1.197 1.218 1.197.336 0 .714-.042.861-.084v2.31c-.252.105-.756.252-1.575.252-2.016 0-3.276-1.197-3.276-3.192v-4.809h-1.869v-2.478h.525c1.092 0 1.596-.714 1.596-1.638v-1.449h2.52zm6.384 7.077h4.62c-.042-1.029-.714-2.037-2.31-2.037-1.449 0-2.247 1.092-2.31 2.037zm4.893 2.688l2.331.693c-.525 1.785-2.163 3.276-4.704 3.276-2.835 0-5.334-2.037-5.334-5.523 0-3.297 2.436-5.439 5.082-5.439 3.192 0 5.103 2.037 5.103 5.355 0 .399-.042.819-.042.861h-7.392c.063 1.365 1.218 2.352 2.604 2.352 1.302 0 2.016-.651 2.352-1.575zm7.476-2.289V635h-2.793v-10.332h2.709v1.281c.63-1.071 1.869-1.554 2.982-1.554 2.562 0 3.738 1.827 3.738 4.095V635h-2.793v-6.027c0-1.155-.567-2.058-1.911-2.058-1.218 0-1.932.945-1.932 2.142zm12.915-7.476v3.087h2.079v2.478h-2.079v4.326c0 .903.42 1.197 1.218 1.197.336 0 .714-.042.861-.084v2.31c-.252.105-.756.252-1.575.252-2.016 0-3.276-1.197-3.276-3.192v-4.809h-1.869v-2.478h.525c1.092 0 1.596-.714 1.596-1.638v-1.449h2.52zm9.177.525c-.63 0-1.449.273-1.449 1.428v1.134h2.331v2.394h-2.331V635h-2.814v-7.938h-1.722v-2.394h1.722v-1.176c0-2.331 1.47-3.843 3.759-3.843.588 0 1.155.105 1.386.21v2.352c-.147-.042-.42-.105-.882-.105zm9.408 12.894c-.042-.21-.084-.693-.084-1.113-.567.966-1.764 1.386-2.856 1.386-2.499 0-3.927-1.827-3.927-4.074v-6.531h2.793v5.964c0 1.155.588 2.079 1.89 2.079 1.239 0 1.953-.84 1.953-2.037v-6.006h2.793v8.463c0 .798.063 1.512.105 1.869h-2.667zm8.337 0h-2.793v-15.204h2.793V635zM706.898 659h-2.793v-10.332h2.793V659zm-3.129-13.713c0-.966.777-1.743 1.722-1.743.966 0 1.722.777 1.722 1.743 0 .924-.756 1.701-1.722 1.701-.945 0-1.722-.777-1.722-1.701zm8.904 7.77V659h-2.793v-10.332h2.709v1.281c.63-1.071 1.869-1.554 2.982-1.554 2.562 0 3.738 1.827 3.738 4.095V659h-2.793v-6.027c0-1.155-.567-2.058-1.911-2.058-1.218 0-1.932.945-1.932 2.142zm12.915-7.476v3.087h2.079v2.478h-2.079v4.326c0 .903.42 1.197 1.218 1.197.336 0 .714-.042.861-.084v2.31c-.252.105-.756.252-1.575.252-2.016 0-3.276-1.197-3.276-3.192v-4.809h-1.869v-2.478h.525c1.092 0 1.596-.714 1.596-1.638v-1.449h2.52zm6.384 7.077h4.62c-.042-1.029-.714-2.037-2.31-2.037-1.449 0-2.247 1.092-2.31 2.037zm4.893 2.688l2.331.693c-.525 1.785-2.163 3.276-4.704 3.276-2.835 0-5.334-2.037-5.334-5.523 0-3.297 2.436-5.439 5.082-5.439 3.192 0 5.103 2.037 5.103 5.355 0 .399-.042.819-.042.861h-7.392c.063 1.365 1.218 2.352 2.604 2.352 1.302 0 2.016-.651 2.352-1.575zm3.948 4.221l2.52-.672c.189 1.134 1.092 1.953 2.415 1.953 1.764 0 2.751-.882 2.751-2.877v-.756c-.42.672-1.386 1.323-2.877 1.323-2.751 0-4.809-2.121-4.809-5.019 0-2.73 1.974-5.04 4.809-5.04 1.638 0 2.583.714 2.94 1.407v-1.218h2.688v9.219c0 2.835-1.533 5.418-5.418 5.418-2.835 0-4.725-1.764-5.019-3.738zm5.292-3.423c1.428 0 2.436-1.029 2.436-2.625s-1.092-2.604-2.436-2.604c-1.386 0-2.478 1.008-2.478 2.604 0 1.617 1.029 2.625 2.478 2.625zm14.28-7.518v2.814c-.315-.063-.588-.084-.84-.084-1.428 0-2.667.693-2.667 2.919V659h-2.793v-10.332h2.709v1.533c.63-1.365 2.058-1.617 2.94-1.617.231 0 .441.021.651.042zm1.407 7.56c0-1.848 1.365-2.877 3.087-3.129l2.541-.378c.588-.084.777-.378.777-.735 0-.735-.567-1.344-1.743-1.344-1.218 0-1.89.777-1.974 1.68l-2.478-.525c.168-1.617 1.659-3.402 4.431-3.402 3.276 0 4.494 1.848 4.494 3.927v5.082c0 .546.063 1.281.126 1.638h-2.562c-.063-.273-.105-.84-.105-1.239-.525.819-1.512 1.533-3.045 1.533-2.205 0-3.549-1.491-3.549-3.108zm4.137 1.029c1.176 0 2.268-.567 2.268-2.394v-.462l-2.331.357c-.714.105-1.281.504-1.281 1.302 0 .609.441 1.197 1.344 1.197zm11.193-11.634v3.087h2.079v2.478h-2.079v4.326c0 .903.42 1.197 1.218 1.197.336 0 .714-.042.861-.084v2.31c-.252.105-.756.252-1.575.252-2.016 0-3.276-1.197-3.276-3.192v-4.809h-1.869v-2.478h.525c1.092 0 1.596-.714 1.596-1.638v-1.449h2.52zM784.367 659h-2.793v-10.332h2.793V659zm-3.129-13.713c0-.966.777-1.743 1.722-1.743.966 0 1.722.777 1.722 1.743 0 .924-.756 1.701-1.722 1.701-.945 0-1.722-.777-1.722-1.701zm10.752 11.487c1.365 0 2.625-.987 2.625-2.94 0-1.953-1.26-2.94-2.625-2.94s-2.625.987-2.625 2.94c0 1.932 1.26 2.94 2.625 2.94zm0-8.421c3.087 0 5.418 2.289 5.418 5.481 0 3.171-2.331 5.481-5.418 5.481s-5.418-2.31-5.418-5.481c0-3.192 2.331-5.481 5.418-5.481zm10.416 4.704V659h-2.793v-10.332h2.709v1.281c.63-1.071 1.869-1.554 2.982-1.554 2.562 0 3.738 1.827 3.738 4.095V659h-2.793v-6.027c0-1.155-.567-2.058-1.911-2.058-1.218 0-1.932.945-1.932 2.142z"/></g><path stroke="#007AFF" stroke-dasharray="6" stroke-width="3" d="M660 598v96"/><g fill-rule="nonzero"><path fill="#000" fill-opacity=".12" d="M910.2555408 593h139.4889182c3.566075 0 4.85922.37130244 6.162924 1.06853082 1.303704.69722837 2.326858 1.72038266 3.024086 3.02408637.697229 1.3037037 1.068531 2.59684865 1.068531 6.16292361v75.4889184c0 3.566075-.371302 4.8592199-1.068531 6.1629236-.697228 1.3037037-1.720382 2.326858-3.024086 3.0240864-1.303704.6972284-2.596849 1.0685308-6.162924 1.0685308H910.2555408c-3.56607496 0-4.85921991-.3713024-6.16292361-1.0685308-1.30370371-.6972284-2.326858-1.7203827-3.02408637-3.0240864C900.37130245 683.6036791 900 682.3105342 900 678.7444592v-75.4889184c0-3.56607496.37130245-4.85921991 1.06853082-6.16292361.69722837-1.30370371 1.72038266-2.326858 3.02408637-3.02408637C905.39632089 593.37130244 906.68946584 593 910.2555408 593z"/><path fill="#002F62" d="M950.575 624.315c-4.158 0-7.623-3.003-7.623-7.749 0-4.746 3.591-7.77 7.581-7.77 4.116 0 6.237 2.52 6.825 4.935l-2.73.861c-.357-1.428-1.512-3.003-4.095-3.003-2.226 0-4.578 1.596-4.578 4.977 0 3.171 2.226 4.914 4.62 4.914 2.541 0 3.78-1.659 4.179-3.045l2.709.819c-.567 2.289-2.709 5.061-6.888 5.061zM966.43 624c-.042-.21-.084-.693-.084-1.113-.567.966-1.764 1.386-2.856 1.386-2.499 0-3.927-1.827-3.927-4.074v-6.531h2.793v5.964c0 1.155.588 2.079 1.89 2.079 1.239 0 1.953-.84 1.953-2.037v-6.006h2.793v8.463c0 .798.063 1.512.105 1.869h-2.667zm4.662-2.877l2.394-.525c.063.819.672 1.575 1.89 1.575.924 0 1.365-.483 1.365-1.029 0-.462-.315-.84-1.113-1.008l-1.365-.315c-1.995-.441-2.898-1.638-2.898-3.087 0-1.848 1.638-3.381 3.864-3.381 2.94 0 3.927 1.869 4.053 2.982l-2.331.525c-.084-.609-.525-1.386-1.701-1.386-.735 0-1.323.441-1.323 1.029 0 .504.378.819.945.924l1.47.315c2.037.42 3.066 1.659 3.066 3.171 0 1.68-1.302 3.402-4.011 3.402-3.108 0-4.179-2.016-4.305-3.192zm14.007-10.542v3.087h2.079v2.478h-2.079v4.326c0 .903.42 1.197 1.218 1.197.336 0 .714-.042.861-.084v2.31c-.252.105-.756.252-1.575.252-2.016 0-3.276-1.197-3.276-3.192v-4.809h-1.869v-2.478h.525c1.092 0 1.596-.714 1.596-1.638v-1.449h2.52zm9.03 11.193c1.365 0 2.625-.987 2.625-2.94 0-1.953-1.26-2.94-2.625-2.94s-2.625.987-2.625 2.94c0 1.932 1.26 2.94 2.625 2.94zm0-8.421c3.087 0 5.418 2.289 5.418 5.481 0 3.171-2.331 5.481-5.418 5.481s-5.418-2.31-5.418-5.481c0-3.192 2.331-5.481 5.418-5.481zM1004.545 624h-2.793v-10.332h2.667v1.26c.567-1.008 1.89-1.554 3.024-1.554 1.407 0 2.541.609 3.066 1.722.819-1.26 1.911-1.722 3.276-1.722 1.911 0 3.738 1.155 3.738 3.927V624h-2.709v-6.132c0-1.113-.546-1.953-1.827-1.953-1.197 0-1.911.924-1.911 2.037V624h-2.772v-6.132c0-1.113-.567-1.953-1.827-1.953-1.218 0-1.932.903-1.932 2.037V624zm-85.4805 17.658h4.62c-.042-1.029-.714-2.037-2.31-2.037-1.449 0-2.247 1.092-2.31 2.037zm4.893 2.688l2.331.693c-.525 1.785-2.163 3.276-4.704 3.276-2.835 0-5.334-2.037-5.334-5.523 0-3.297 2.436-5.439 5.082-5.439 3.192 0 5.103 2.037 5.103 5.355 0 .399-.042.819-.042.861h-7.392c.063 1.365 1.218 2.352 2.604 2.352 1.302 0 2.016-.651 2.352-1.575zm3.444 3.654l3.675-5.187-3.675-5.145h3.318c.357.567 1.701 2.499 2.058 3.066l2.037-3.066h3.171l-3.612 5.061 3.738 5.271h-3.276l-2.163-3.171c-.378.567-1.764 2.604-2.121 3.171h-3.15zm15.855-13.419v3.087h2.079v2.478h-2.079v4.326c0 .903.42 1.197 1.218 1.197.336 0 .714-.042.861-.084v2.31c-.252.105-.756.252-1.575.252-2.016 0-3.276-1.197-3.276-3.192v-4.809h-1.869v-2.478h.525c1.092 0 1.596-.714 1.596-1.638v-1.449h2.52zm6.426 7.077h4.62c-.042-1.029-.714-2.037-2.31-2.037-1.449 0-2.247 1.092-2.31 2.037zm4.893 2.688l2.331.693c-.525 1.785-2.163 3.276-4.704 3.276-2.835 0-5.334-2.037-5.334-5.523 0-3.297 2.436-5.439 5.082-5.439 3.192 0 5.103 2.037 5.103 5.355 0 .399-.042.819-.042.861h-7.392c.063 1.365 1.218 2.352 2.604 2.352 1.302 0 2.016-.651 2.352-1.575zm10.983-6.72v2.814c-.315-.063-.588-.084-.84-.084-1.428 0-2.667.693-2.667 2.919V648h-2.793v-10.332h2.709v1.533c.63-1.365 2.058-1.617 2.94-1.617.231 0 .441.021.651.042zm4.704 4.431V648h-2.793v-10.332h2.709v1.281c.63-1.071 1.869-1.554 2.982-1.554 2.562 0 3.738 1.827 3.738 4.095V648h-2.793v-6.027c0-1.155-.567-2.058-1.911-2.058-1.218 0-1.932.945-1.932 2.142zm8.841 3.129c0-1.848 1.365-2.877 3.087-3.129l2.541-.378c.588-.084.777-.378.777-.735 0-.735-.567-1.344-1.743-1.344-1.218 0-1.89.777-1.974 1.68l-2.478-.525c.168-1.617 1.659-3.402 4.431-3.402 3.276 0 4.494 1.848 4.494 3.927v5.082c0 .546.063 1.281.126 1.638h-2.562c-.063-.273-.105-.84-.105-1.239-.525.819-1.512 1.533-3.045 1.533-2.205 0-3.549-1.491-3.549-3.108zm4.137 1.029c1.176 0 2.268-.567 2.268-2.394v-.462l-2.331.357c-.714.105-1.281.504-1.281 1.302 0 .609.441 1.197 1.344 1.197zm10.605 1.785h-2.793v-15.204h2.793V648zm14.469-10.374v2.814c-.315-.063-.588-.084-.84-.084-1.428 0-2.667.693-2.667 2.919V648h-2.793v-10.332h2.709v1.533c.63-1.365 2.058-1.617 2.94-1.617.231 0 .441.021.651.042zm3.948 4.032h4.62c-.042-1.029-.714-2.037-2.31-2.037-1.449 0-2.247 1.092-2.31 2.037zm4.893 2.688l2.331.693c-.525 1.785-2.163 3.276-4.704 3.276-2.835 0-5.334-2.037-5.334-5.523 0-3.297 2.436-5.439 5.082-5.439 3.192 0 5.103 2.037 5.103 5.355 0 .399-.042.819-.042.861h-7.392c.063 1.365 1.218 2.352 2.604 2.352 1.302 0 2.016-.651 2.352-1.575zm7.476 7.644h-2.793v-14.322h2.709v1.26c.462-.798 1.617-1.491 3.171-1.491 3.024 0 4.767 2.31 4.767 5.376 0 3.129-1.953 5.439-4.872 5.439-1.428 0-2.478-.567-2.982-1.26v4.998zm5.103-9.156c0-1.827-1.134-2.898-2.562-2.898s-2.583 1.071-2.583 2.898c0 1.827 1.155 2.919 2.583 2.919 1.428 0 2.562-1.071 2.562-2.919zm9.597 2.94c1.365 0 2.625-.987 2.625-2.94 0-1.953-1.26-2.94-2.625-2.94s-2.625.987-2.625 2.94c0 1.932 1.26 2.94 2.625 2.94zm0-8.421c3.087 0 5.418 2.289 5.418 5.481 0 3.171-2.331 5.481-5.418 5.481s-5.418-2.31-5.418-5.481c0-3.192 2.331-5.481 5.418-5.481zM930.94 672h-2.793v-10.332h2.793V672zm-3.129-13.713c0-.966.777-1.743 1.722-1.743.966 0 1.722.777 1.722 1.743 0 .924-.756 1.701-1.722 1.701-.945 0-1.722-.777-1.722-1.701zm8.904 7.77V672h-2.793v-10.332h2.709v1.281c.63-1.071 1.869-1.554 2.982-1.554 2.562 0 3.738 1.827 3.738 4.095V672h-2.793v-6.027c0-1.155-.567-2.058-1.911-2.058-1.218 0-1.932.945-1.932 2.142zm12.915-7.476v3.087h2.079v2.478h-2.079v4.326c0 .903.42 1.197 1.218 1.197.336 0 .714-.042.861-.084v2.31c-.252.105-.756.252-1.575.252-2.016 0-3.276-1.197-3.276-3.192v-4.809h-1.869v-2.478h.525c1.092 0 1.596-.714 1.596-1.638v-1.449h2.52zm6.426 7.077h4.62c-.042-1.029-.714-2.037-2.31-2.037-1.449 0-2.247 1.092-2.31 2.037zm4.893 2.688l2.331.693c-.525 1.785-2.163 3.276-4.704 3.276-2.835 0-5.334-2.037-5.334-5.523 0-3.297 2.436-5.439 5.082-5.439 3.192 0 5.103 2.037 5.103 5.355 0 .399-.042.819-.042.861h-7.392c.063 1.365 1.218 2.352 2.604 2.352 1.302 0 2.016-.651 2.352-1.575zm3.948 4.221l2.52-.672c.189 1.134 1.092 1.953 2.415 1.953 1.764 0 2.751-.882 2.751-2.877v-.756c-.42.672-1.386 1.323-2.877 1.323-2.751 0-4.809-2.121-4.809-5.019 0-2.73 1.974-5.04 4.809-5.04 1.638 0 2.583.714 2.94 1.407v-1.218h2.688v9.219c0 2.835-1.533 5.418-5.418 5.418-2.835 0-4.725-1.764-5.019-3.738zm5.292-3.423c1.428 0 2.436-1.029 2.436-2.625s-1.092-2.604-2.436-2.604c-1.386 0-2.478 1.008-2.478 2.604 0 1.617 1.029 2.625 2.478 2.625zm14.28-7.518v2.814c-.315-.063-.588-.084-.84-.084-1.428 0-2.667.693-2.667 2.919V672h-2.793v-10.332h2.709v1.533c.63-1.365 2.058-1.617 2.94-1.617.231 0 .441.021.651.042zm1.281 7.56c0-1.848 1.365-2.877 3.087-3.129l2.541-.378c.588-.084.777-.378.777-.735 0-.735-.567-1.344-1.743-1.344-1.218 0-1.89.777-1.974 1.68l-2.478-.525c.168-1.617 1.659-3.402 4.431-3.402 3.276 0 4.494 1.848 4.494 3.927v5.082c0 .546.063 1.281.126 1.638h-2.562c-.063-.273-.105-.84-.105-1.239-.525.819-1.512 1.533-3.045 1.533-2.205 0-3.549-1.491-3.549-3.108zm4.137 1.029c1.176 0 2.268-.567 2.268-2.394v-.462l-2.331.357c-.714.105-1.281.504-1.281 1.302 0 .609.441 1.197 1.344 1.197zm11.256-11.634v3.087h2.079v2.478h-2.079v4.326c0 .903.42 1.197 1.218 1.197.336 0 .714-.042.861-.084v2.31c-.252.105-.756.252-1.575.252-2.016 0-3.276-1.197-3.276-3.192v-4.809h-1.869v-2.478h.525c1.092 0 1.596-.714 1.596-1.638v-1.449h2.52zm7.182 13.419h-2.793v-10.332h2.793V672zm-3.129-13.713c0-.966.777-1.743 1.722-1.743.966 0 1.722.777 1.722 1.743 0 .924-.756 1.701-1.722 1.701-.945 0-1.722-.777-1.722-1.701zm10.752 11.487c1.365 0 2.625-.987 2.625-2.94 0-1.953-1.26-2.94-2.625-2.94s-2.625.987-2.625 2.94c0 1.932 1.26 2.94 2.625 2.94zm0-8.421c3.087 0 5.418 2.289 5.418 5.481 0 3.171-2.331 5.481-5.418 5.481s-5.418-2.31-5.418-5.481c0-3.192 2.331-5.481 5.418-5.481zm10.416 4.704V672h-2.793v-10.332h2.709v1.281c.63-1.071 1.869-1.554 2.982-1.554 2.562 0 3.738 1.827 3.738 4.095V672h-2.793v-6.027c0-1.155-.567-2.058-1.911-2.058-1.218 0-1.932.945-1.932 2.142z"/></g><path fill="#000" fill-opacity=".12" d="M494.2555408 593H633.744459c3.566075 0 4.85922.37130244 6.162924 1.06853082 1.303704.69722837 2.326858 1.72038266 3.024086 3.02408637.697229 1.3037037 1.068531 2.59684865 1.068531 6.16292361v75.4889184c0 3.566075-.371302 4.8592199-1.068531 6.1629236-.697228 1.3037037-1.720382 2.326858-3.024086 3.0240864C638.603679 688.6286976 637.310534 689 633.744459 689H494.2555408c-3.56607496 0-4.85921991-.3713024-6.16292361-1.0685308-1.30370371-.6972284-2.326858-1.7203827-3.02408637-3.0240864C484.37130244 683.6036791 484 682.3105342 484 678.7444592v-75.4889184c0-3.56607496.37130244-4.85921991 1.06853082-6.16292361.69722837-1.30370371 1.72038266-2.326858 3.02408637-3.02408637C489.39632089 593.37130244 490.68946584 593 494.2555408 593z"/><path fill="#002F62" fill-rule="nonzero" d="M534.306 623.315c-4.158 0-7.623-3.003-7.623-7.749 0-4.746 3.591-7.77 7.581-7.77 4.116 0 6.237 2.52 6.825 4.935l-2.73.861c-.357-1.428-1.512-3.003-4.095-3.003-2.226 0-4.578 1.596-4.578 4.977 0 3.171 2.226 4.914 4.62 4.914 2.541 0 3.78-1.659 4.179-3.045l2.709.819c-.567 2.289-2.709 5.061-6.888 5.061zm15.435-.315c-.042-.21-.084-.693-.084-1.113-.567.966-1.764 1.386-2.856 1.386-2.499 0-3.927-1.827-3.927-4.074v-6.531h2.793v5.964c0 1.155.588 2.079 1.89 2.079 1.239 0 1.953-.84 1.953-2.037v-6.006h2.793v8.463c0 .798.063 1.512.105 1.869h-2.667zm4.662-2.877l2.394-.525c.063.819.672 1.575 1.89 1.575.924 0 1.365-.483 1.365-1.029 0-.462-.315-.84-1.113-1.008l-1.365-.315c-1.995-.441-2.898-1.638-2.898-3.087 0-1.848 1.638-3.381 3.864-3.381 2.94 0 3.927 1.869 4.053 2.982l-2.331.525c-.084-.609-.525-1.386-1.701-1.386-.735 0-1.323.441-1.323 1.029 0 .504.378.819.945.924l1.47.315c2.037.42 3.066 1.659 3.066 3.171 0 1.68-1.302 3.402-4.011 3.402-3.108 0-4.179-2.016-4.305-3.192zm14.007-10.542v3.087h2.079v2.478h-2.079v4.326c0 .903.42 1.197 1.218 1.197.336 0 .714-.042.861-.084v2.31c-.252.105-.756.252-1.575.252-2.016 0-3.276-1.197-3.276-3.192v-4.809h-1.869v-2.478h.525c1.092 0 1.596-.714 1.596-1.638v-1.449h2.52zm8.988 11.193c1.365 0 2.625-.987 2.625-2.94 0-1.953-1.26-2.94-2.625-2.94s-2.625.987-2.625 2.94c0 1.932 1.26 2.94 2.625 2.94zm0-8.421c3.087 0 5.418 2.289 5.418 5.481 0 3.171-2.331 5.481-5.418 5.481s-5.418-2.31-5.418-5.481c0-3.192 2.331-5.481 5.418-5.481zM587.814 623h-2.793v-10.332h2.667v1.26c.567-1.008 1.89-1.554 3.024-1.554 1.407 0 2.541.609 3.066 1.722.819-1.26 1.911-1.722 3.276-1.722 1.911 0 3.738 1.155 3.738 3.927V623h-2.709v-6.132c0-1.113-.546-1.953-1.827-1.953-1.197 0-1.911.924-1.911 2.037V623h-2.772v-6.132c0-1.113-.567-1.953-1.827-1.953-1.218 0-1.932.903-1.932 2.037V623zm-61.467 24h-2.709v-15.204h2.751v6.006c.462-.735 1.596-1.407 3.129-1.407 3.024 0 4.767 2.331 4.767 5.397 0 3.129-1.932 5.46-4.872 5.46-1.428 0-2.52-.63-3.066-1.512V647zm5.145-5.187c0-1.89-1.134-2.919-2.562-2.919-1.407 0-2.583 1.029-2.583 2.919 0 1.869 1.176 2.94 2.583 2.94 1.428 0 2.562-1.05 2.562-2.94zm4.368 2.373c0-1.848 1.365-2.877 3.087-3.129l2.541-.378c.588-.084.777-.378.777-.735 0-.735-.567-1.344-1.743-1.344-1.218 0-1.89.777-1.974 1.68l-2.478-.525c.168-1.617 1.659-3.402 4.431-3.402 3.276 0 4.494 1.848 4.494 3.927v5.082c0 .546.063 1.281.126 1.638h-2.562c-.063-.273-.105-.84-.105-1.239-.525.819-1.512 1.533-3.045 1.533-2.205 0-3.549-1.491-3.549-3.108zm4.137 1.029c1.176 0 2.268-.567 2.268-2.394v-.462l-2.331.357c-.714.105-1.281.504-1.281 1.302 0 .609.441 1.197 1.344 1.197zm12.411-6.279c-1.428 0-2.625 1.029-2.625 2.898 0 1.869 1.218 2.919 2.646 2.919s2.142-.945 2.373-1.743l2.457.819c-.462 1.722-2.079 3.486-4.83 3.486-3.045 0-5.439-2.31-5.439-5.481 0-3.192 2.352-5.481 5.355-5.481 2.814 0 4.41 1.743 4.851 3.486l-2.499.84c-.252-.861-.903-1.743-2.289-1.743zm16.926-2.268l-4.137 4.347 4.221 5.985h-3.423l-2.73-3.948-1.155 1.218V647h-2.793v-15.204h2.793v8.715l3.57-3.843h3.654zm3.297 3.99h4.62c-.042-1.029-.714-2.037-2.31-2.037-1.449 0-2.247 1.092-2.31 2.037zm4.893 2.688l2.331.693c-.525 1.785-2.163 3.276-4.704 3.276-2.835 0-5.334-2.037-5.334-5.523 0-3.297 2.436-5.439 5.082-5.439 3.192 0 5.103 2.037 5.103 5.355 0 .399-.042.819-.042.861h-7.392c.063 1.365 1.218 2.352 2.604 2.352 1.302 0 2.016-.651 2.352-1.575zm7.476-2.289V647h-2.793v-10.332h2.709v1.281c.63-1.071 1.869-1.554 2.982-1.554 2.562 0 3.738 1.827 3.738 4.095V647h-2.793v-6.027c0-1.155-.567-2.058-1.911-2.058-1.218 0-1.932.945-1.932 2.142zm19.32-9.261v13.335c0 .693.042 1.449.084 1.869h-2.667c-.042-.21-.105-.714-.105-1.197-.462.819-1.512 1.449-2.898 1.449-2.94 0-5.04-2.31-5.04-5.439 0-3.024 2.037-5.397 4.956-5.397 1.785 0 2.625.735 2.919 1.281v-5.901h2.751zm-7.812 10.017c0 1.848 1.092 2.94 2.562 2.94 1.428 0 2.541-1.092 2.541-2.961 0-1.848-1.113-2.877-2.541-2.877s-2.562 1.05-2.562 2.898zM514.398 671h-2.793v-10.332h2.793V671zm-3.129-13.713c0-.966.777-1.743 1.722-1.743.966 0 1.722.777 1.722 1.743 0 .924-.756 1.701-1.722 1.701-.945 0-1.722-.777-1.722-1.701zm8.904 7.77V671h-2.793v-10.332h2.709v1.281c.63-1.071 1.869-1.554 2.982-1.554 2.562 0 3.738 1.827 3.738 4.095V671h-2.793v-6.027c0-1.155-.567-2.058-1.911-2.058-1.218 0-1.932.945-1.932 2.142zm12.915-7.476v3.087h2.079v2.478h-2.079v4.326c0 .903.42 1.197 1.218 1.197.336 0 .714-.042.861-.084v2.31c-.252.105-.756.252-1.575.252-2.016 0-3.276-1.197-3.276-3.192v-4.809h-1.869v-2.478h.525c1.092 0 1.596-.714 1.596-1.638v-1.449h2.52zm6.384 7.077h4.62c-.042-1.029-.714-2.037-2.31-2.037-1.449 0-2.247 1.092-2.31 2.037zm4.893 2.688l2.331.693c-.525 1.785-2.163 3.276-4.704 3.276-2.835 0-5.334-2.037-5.334-5.523 0-3.297 2.436-5.439 5.082-5.439 3.192 0 5.103 2.037 5.103 5.355 0 .399-.042.819-.042.861h-7.392c.063 1.365 1.218 2.352 2.604 2.352 1.302 0 2.016-.651 2.352-1.575zm3.948 4.221l2.52-.672c.189 1.134 1.092 1.953 2.415 1.953 1.764 0 2.751-.882 2.751-2.877v-.756c-.42.672-1.386 1.323-2.877 1.323-2.751 0-4.809-2.121-4.809-5.019 0-2.73 1.974-5.04 4.809-5.04 1.638 0 2.583.714 2.94 1.407v-1.218h2.688v9.219c0 2.835-1.533 5.418-5.418 5.418-2.835 0-4.725-1.764-5.019-3.738zm5.292-3.423c1.428 0 2.436-1.029 2.436-2.625s-1.092-2.604-2.436-2.604c-1.386 0-2.478 1.008-2.478 2.604 0 1.617 1.029 2.625 2.478 2.625zm14.28-7.518v2.814c-.315-.063-.588-.084-.84-.084-1.428 0-2.667.693-2.667 2.919V671h-2.793v-10.332h2.709v1.533c.63-1.365 2.058-1.617 2.94-1.617.231 0 .441.021.651.042zm1.407 7.56c0-1.848 1.365-2.877 3.087-3.129l2.541-.378c.588-.084.777-.378.777-.735 0-.735-.567-1.344-1.743-1.344-1.218 0-1.89.777-1.974 1.68l-2.478-.525c.168-1.617 1.659-3.402 4.431-3.402 3.276 0 4.494 1.848 4.494 3.927v5.082c0 .546.063 1.281.126 1.638h-2.562c-.063-.273-.105-.84-.105-1.239-.525.819-1.512 1.533-3.045 1.533-2.205 0-3.549-1.491-3.549-3.108zm4.137 1.029c1.176 0 2.268-.567 2.268-2.394v-.462l-2.331.357c-.714.105-1.281.504-1.281 1.302 0 .609.441 1.197 1.344 1.197zm11.193-11.634v3.087h2.079v2.478h-2.079v4.326c0 .903.42 1.197 1.218 1.197.336 0 .714-.042.861-.084v2.31c-.252.105-.756.252-1.575.252-2.016 0-3.276-1.197-3.276-3.192v-4.809h-1.869v-2.478h.525c1.092 0 1.596-.714 1.596-1.638v-1.449h2.52zM591.867 671h-2.793v-10.332h2.793V671zm-3.129-13.713c0-.966.777-1.743 1.722-1.743.966 0 1.722.777 1.722 1.743 0 .924-.756 1.701-1.722 1.701-.945 0-1.722-.777-1.722-1.701zm10.752 11.487c1.365 0 2.625-.987 2.625-2.94 0-1.953-1.26-2.94-2.625-2.94s-2.625.987-2.625 2.94c0 1.932 1.26 2.94 2.625 2.94zm0-8.421c3.087 0 5.418 2.289 5.418 5.481 0 3.171-2.331 5.481-5.418 5.481s-5.418-2.31-5.418-5.481c0-3.192 2.331-5.481 5.418-5.481zm10.416 4.704V671h-2.793v-10.332h2.709v1.281c.63-1.071 1.869-1.554 2.982-1.554 2.562 0 3.738 1.827 3.738 4.095V671h-2.793v-6.027c0-1.155-.567-2.058-1.911-2.058-1.218 0-1.932.945-1.932 2.142z"/><path stroke="#007AFF" stroke-dasharray="8" stroke-linecap="round" stroke-width="4" d="M14.2555408 881H1081.74446c3.56607 0 4.85922.37130244 6.16292 1.06853082 1.30371.69722837 2.32686 1.72038266 3.02409 3.02408637.69723 1.3037037 1.06853 2.59684865 1.06853 6.16292361v43.4889184c0 3.566075-.3713 4.8592199-1.06853 6.1629236-.69723 1.3037037-1.72038 2.326858-3.02409 3.0240864-1.3037.6972284-2.59685 1.0685308-6.16292 1.0685308H14.2555408c-3.56607496 0-4.85921991-.3713024-6.16292361-1.0685308-1.30370371-.6972284-2.326858-1.7203827-3.02408637-3.0240864C4.37130244 939.6036791 4 938.3105342 4 934.7444592v-43.4889184c0-3.56607496.37130245-4.85921991 1.06853082-6.16292361.69722837-1.30370371 1.72038266-2.326858 3.02408637-3.02408637C9.39632089 881.37130244 10.68946584 881 14.2555408 881z"/><path fill="#012F62" fill-rule="nonzero" d="M499.9125 910.5l-3.1.95c-.175-.975-.975-2.5-3.225-2.5-1.675 0-2.775 1.075-2.775 2.25 0 .975.625 1.75 1.925 2l2.475.475c3.225.625 4.95 2.725 4.95 5.225 0 2.725-2.275 5.475-6.4 5.475-4.7 0-6.775-3.025-7.05-5.55l3.2-.85c.15 1.75 1.375 3.325 3.875 3.325 1.85 0 2.875-.925 2.875-2.175 0-1.025-.775-1.825-2.15-2.1l-2.475-.5c-2.825-.575-4.65-2.4-4.65-5.075 0-3.15 2.825-5.55 6.175-5.55 4.3 0 5.95 2.6 6.35 4.6zm7.575 6.05l-6.175-10.275h4.05l3.975 7.025 3.975-7.025h3.875l-6.25 10.275V924h-3.45v-7.45zm31.75 7.45h-3.4v-12.425l-5.1 12.425h-2.875l-5.1-12.325V924h-3.3v-17.725h4.55l5.325 12.8 5.2-12.8h4.7V924zm7.525 0h-3.475v-17.725h11.2v3.275h-7.75v4.375h6.9v3.175h-6.875v6.9zm13.1-8.875c0 4 2.8 5.9 5.525 5.9 2.75 0 5.55-1.9 5.55-5.9s-2.8-5.9-5.55-5.9c-2.725 0-5.525 1.9-5.525 5.9zm-3.575.025c0-5.725 4.3-9.25 9.1-9.25 4.825 0 9.125 3.525 9.125 9.25 0 5.7-4.3 9.225-9.125 9.225-4.8 0-9.1-3.525-9.1-9.225zm36.35 8.85h-3.625l-8.05-12.575V924h-3.45v-17.725h4.3l7.375 11.725v-11.725h3.45V924zm8.45-7.45l-6.175-10.275h4.05l3.975 7.025 3.975-7.025h3.875l-6.25 10.275V924h-3.45v-7.45z"/><path fill="#007AFF" fill-opacity=".08" stroke="#007AFF" stroke-dasharray="8" stroke-linecap="round" stroke-width="4" d="M46.2555408 753H185.744459c3.566075 0 4.85922.37130244 6.162924 1.06853082 1.303704.69722837 2.326858 1.72038266 3.024086 3.02408637.697229 1.3037037 1.068531 2.59684865 1.068531 6.16292361v75.4889184c0 3.566075-.371302 4.8592199-1.068531 6.1629236-.697228 1.3037037-1.720382 2.326858-3.024086 3.0240864C190.603679 848.6286976 189.310534 849 185.744459 849H46.2555408c-3.56607496 0-4.85921991-.3713024-6.16292361-1.0685308-1.30370371-.6972284-2.326858-1.7203827-3.02408637-3.0240864C36.37130244 843.6036791 36 842.3105342 36 838.7444592v-75.4889184c0-3.56607496.37130244-4.85921991 1.06853082-6.16292361.69722837-1.30370371 1.72038266-2.326858 3.02408637-3.02408637C41.39632089 753.37130244 42.68946584 753 46.2555408 753z"/><path fill="#012F62" fill-rule="nonzero" d="M62.5235 802.658h4.62c-.042-1.029-.714-2.037-2.31-2.037-1.449 0-2.247 1.092-2.31 2.037zm4.893 2.688l2.331.693c-.525 1.785-2.163 3.276-4.704 3.276-2.835 0-5.334-2.037-5.334-5.523 0-3.297 2.436-5.439 5.082-5.439 3.192 0 5.103 2.037 5.103 5.355 0 .399-.042.819-.042.861h-7.392c.063 1.365 1.218 2.352 2.604 2.352 1.302 0 2.016-.651 2.352-1.575zM83.1455 809h-11.718v-2.814l7.749-9.324h-7.476v-2.751h11.34v2.709l-7.875 9.408h7.98V809zm10.71-8.106h2.289c1.449 0 2.331-.84 2.331-2.121 0-1.323-.882-2.142-2.331-2.142h-2.289v4.263zm2.646 2.499h-2.667V809h-2.898v-14.889h5.565c2.94 0 4.893 1.953 4.893 4.641 0 2.709-1.953 4.641-4.893 4.641zm9.597 5.607h-2.793v-15.204h2.793V809zm2.289-2.814c0-1.848 1.365-2.877 3.087-3.129l2.541-.378c.588-.084.777-.378.777-.735 0-.735-.567-1.344-1.743-1.344-1.218 0-1.89.777-1.974 1.68l-2.478-.525c.168-1.617 1.659-3.402 4.431-3.402 3.276 0 4.494 1.848 4.494 3.927v5.082c0 .546.063 1.281.126 1.638h-2.562c-.063-.273-.105-.84-.105-1.239-.525.819-1.512 1.533-3.045 1.533-2.205 0-3.549-1.491-3.549-3.108zm4.137 1.029c1.176 0 2.268-.567 2.268-2.394v-.462l-2.331.357c-.714.105-1.281.504-1.281 1.302 0 .609.441 1.197 1.344 1.197zm11.193-11.634v3.087h2.079v2.478h-2.079v4.326c0 .903.42 1.197 1.218 1.197.336 0 .714-.042.861-.084v2.31c-.252.105-.756.252-1.575.252-2.016 0-3.276-1.197-3.276-3.192v-4.809h-1.869v-2.478h.525c1.092 0 1.596-.714 1.596-1.638v-1.449h2.52zm9.177.525c-.63 0-1.449.273-1.449 1.428v1.134h2.331v2.394h-2.331V809h-2.814v-7.938h-1.722v-2.394h1.722v-1.176c0-2.331 1.47-3.843 3.759-3.843.588 0 1.155.105 1.386.21v2.352c-.147-.042-.42-.105-.882-.105zm7.098 10.668c1.365 0 2.625-.987 2.625-2.94 0-1.953-1.26-2.94-2.625-2.94s-2.625.987-2.625 2.94c0 1.932 1.26 2.94 2.625 2.94zm0-8.421c3.087 0 5.418 2.289 5.418 5.481 0 3.171-2.331 5.481-5.418 5.481s-5.418-2.31-5.418-5.481c0-3.192 2.331-5.481 5.418-5.481zm13.923.273v2.814c-.315-.063-.588-.084-.84-.084-1.428 0-2.667.693-2.667 2.919V809h-2.793v-10.332h2.709v1.533c.63-1.365 2.058-1.617 2.94-1.617.231 0 .441.021.651.042zm4.767 10.374h-2.793v-10.332h2.667v1.26c.567-1.008 1.89-1.554 3.024-1.554 1.407 0 2.541.609 3.066 1.722.819-1.26 1.911-1.722 3.276-1.722 1.911 0 3.738 1.155 3.738 3.927V809h-2.709v-6.132c0-1.113-.546-1.953-1.827-1.953-1.197 0-1.911.924-1.911 2.037V809h-2.772v-6.132c0-1.113-.567-1.953-1.827-1.953-1.218 0-1.932.903-1.932 2.037V809z"/><g><path fill="#007AFF" fill-opacity=".08" stroke="#007AFF" stroke-dasharray="8" stroke-linecap="round" stroke-width="3" d="M237.2555408 753H376.744459c3.566075 0 4.85922.37130244 6.162924 1.06853082 1.303704.69722837 2.326858 1.72038266 3.024086 3.02408637.697229 1.3037037 1.068531 2.59684865 1.068531 6.16292361v75.4889184c0 3.566075-.371302 4.8592199-1.068531 6.1629236-.697228 1.3037037-1.720382 2.326858-3.024086 3.0240864C381.603679 848.6286976 380.310534 849 376.744459 849H237.2555408c-3.56607496 0-4.85921991-.3713024-6.16292361-1.0685308-1.30370371-.6972284-2.326858-1.7203827-3.02408637-3.0240864C227.37130244 843.6036791 227 842.3105342 227 838.7444592v-75.4889184c0-3.56607496.37130244-4.85921991 1.06853082-6.16292361.69722837-1.30370371 1.72038266-2.326858 3.02408637-3.02408637C232.39632089 753.37130244 233.68946584 753 237.2555408 753z"/><path fill="#012F62" fill-rule="nonzero" d="M289.9585 797.66l-2.604.798c-.147-.819-.819-2.1-2.709-2.1-1.407 0-2.331.903-2.331 1.89 0 .819.525 1.47 1.617 1.68l2.079.399c2.709.525 4.158 2.289 4.158 4.389 0 2.289-1.911 4.599-5.376 4.599-3.948 0-5.691-2.541-5.922-4.662l2.688-.714c.126 1.47 1.155 2.793 3.255 2.793 1.554 0 2.415-.777 2.415-1.827 0-.861-.651-1.533-1.806-1.764l-2.079-.42c-2.373-.483-3.906-2.016-3.906-4.263 0-2.646 2.373-4.662 5.187-4.662 3.612 0 4.998 2.184 5.334 3.864zm5.565 15.414h-2.961l2.436-5.376-4.389-9.03h3.129l2.751 6.048 2.541-6.048h2.982l-6.489 14.406zm10.983-4.074h-2.793v-15.204h2.793V809zm5.775 0h-2.793v-10.332h2.793V809zm-3.129-13.713c0-.966.777-1.743 1.722-1.743.966 0 1.722.777 1.722 1.743 0 .924-.756 1.701-1.722 1.701-.945 0-1.722-.777-1.722-1.701zM322.0255 809c-.042-.21-.084-.693-.084-1.113-.567.966-1.764 1.386-2.856 1.386-2.499 0-3.927-1.827-3.927-4.074v-6.531h2.793v5.964c0 1.155.588 2.079 1.89 2.079 1.239 0 1.953-.84 1.953-2.037v-6.006h2.793v8.463c0 .798.063 1.512.105 1.869h-2.667zm4.662-2.877l2.394-.525c.063.819.672 1.575 1.89 1.575.924 0 1.365-.483 1.365-1.029 0-.462-.315-.84-1.113-1.008l-1.365-.315c-1.995-.441-2.898-1.638-2.898-3.087 0-1.848 1.638-3.381 3.864-3.381 2.94 0 3.927 1.869 4.053 2.982l-2.331.525c-.084-.609-.525-1.386-1.701-1.386-.735 0-1.323.441-1.323 1.029 0 .504.378.819.945.924l1.47.315c2.037.42 3.066 1.659 3.066 3.171 0 1.68-1.302 3.402-4.011 3.402-3.108 0-4.179-2.016-4.305-3.192z"/></g><g><path fill="#007AFF" fill-opacity=".08" stroke="#007AFF" stroke-dasharray="8" stroke-linecap="round" stroke-width="4" d="M494.2555408 753H633.744459c3.566075 0 4.85922.37130244 6.162924 1.06853082 1.303704.69722837 2.326858 1.72038266 3.024086 3.02408637.697229 1.3037037 1.068531 2.59684865 1.068531 6.16292361v75.4889184c0 3.566075-.371302 4.8592199-1.068531 6.1629236-.697228 1.3037037-1.720382 2.326858-3.024086 3.0240864C638.603679 848.6286976 637.310534 849 633.744459 849H494.2555408c-3.56607496 0-4.85921991-.3713024-6.16292361-1.0685308-1.30370371-.6972284-2.326858-1.7203827-3.02408637-3.0240864C484.37130244 843.6036791 484 842.3105342 484 838.7444592v-75.4889184c0-3.56607496.37130244-4.85921991 1.06853082-6.16292361.69722837-1.30370371 1.72038266-2.326858 3.02408637-3.02408637C489.39632089 753.37130244 490.68946584 753 494.2555408 753z"/><path fill="#012F62" fill-rule="nonzero" d="M515.6515 802.238c0-4.809 1.953-8.022 4.41-10.437l1.617 1.491c-2.247 2.394-3.675 5.166-3.675 8.946 0 3.78 1.428 6.573 3.675 8.967l-1.617 1.47c-2.457-2.394-4.41-5.628-4.41-10.437zm7.728-8.127h5.355c2.898 0 4.536 1.701 4.536 4.011 0 1.533-.924 2.772-2.163 3.192 1.449.357 2.625 1.68 2.625 3.528 0 2.415-1.806 4.158-4.599 4.158h-5.754v-14.889zm2.856 6.153h2.058c1.323 0 2.121-.735 2.121-1.869s-.735-1.848-2.142-1.848h-2.037v3.717zm0 6.321h2.352c1.407 0 2.247-.735 2.247-1.932 0-1.176-.756-1.995-2.205-1.995h-2.394v3.927zm9.093-.399c0-1.848 1.365-2.877 3.087-3.129l2.541-.378c.588-.084.777-.378.777-.735 0-.735-.567-1.344-1.743-1.344-1.218 0-1.89.777-1.974 1.68l-2.478-.525c.168-1.617 1.659-3.402 4.431-3.402 3.276 0 4.494 1.848 4.494 3.927v5.082c0 .546.063 1.281.126 1.638h-2.562c-.063-.273-.105-.84-.105-1.239-.525.819-1.512 1.533-3.045 1.533-2.205 0-3.549-1.491-3.549-3.108zm4.137 1.029c1.176 0 2.268-.567 2.268-2.394v-.462l-2.331.357c-.714.105-1.281.504-1.281 1.302 0 .609.441 1.197 1.344 1.197zm12.411-6.279c-1.428 0-2.625 1.029-2.625 2.898 0 1.869 1.218 2.919 2.646 2.919s2.142-.945 2.373-1.743l2.457.819c-.462 1.722-2.079 3.486-4.83 3.486-3.045 0-5.439-2.31-5.439-5.481 0-3.192 2.352-5.481 5.355-5.481 2.814 0 4.41 1.743 4.851 3.486l-2.499.84c-.252-.861-.903-1.743-2.289-1.743zm16.926-2.268l-4.137 4.347 4.221 5.985h-3.423l-2.73-3.948-1.155 1.218V809h-2.793v-15.204h2.793v8.715l3.57-3.843h3.654zm3.297 3.99h4.62c-.042-1.029-.714-2.037-2.31-2.037-1.449 0-2.247 1.092-2.31 2.037zm4.893 2.688l2.331.693c-.525 1.785-2.163 3.276-4.704 3.276-2.835 0-5.334-2.037-5.334-5.523 0-3.297 2.436-5.439 5.082-5.439 3.192 0 5.103 2.037 5.103 5.355 0 .399-.042.819-.042.861h-7.392c.063 1.365 1.218 2.352 2.604 2.352 1.302 0 2.016-.651 2.352-1.575zm7.476-2.289V809h-2.793v-10.332h2.709v1.281c.63-1.071 1.869-1.554 2.982-1.554 2.562 0 3.738 1.827 3.738 4.095V809h-2.793v-6.027c0-1.155-.567-2.058-1.911-2.058-1.218 0-1.932.945-1.932 2.142zm19.32-9.261v13.335c0 .693.042 1.449.084 1.869h-2.667c-.042-.21-.105-.714-.105-1.197-.462.819-1.512 1.449-2.898 1.449-2.94 0-5.04-2.31-5.04-5.439 0-3.024 2.037-5.397 4.956-5.397 1.785 0 2.625.735 2.919 1.281v-5.901h2.751zm-7.812 10.017c0 1.848 1.092 2.94 2.562 2.94 1.428 0 2.541-1.092 2.541-2.961 0-1.848-1.113-2.877-2.541-2.877s-2.562 1.05-2.562 2.898zm15.372-1.575c0 4.809-1.953 8.043-4.41 10.437l-1.617-1.47c2.247-2.394 3.675-5.187 3.675-8.967 0-3.78-1.428-6.552-3.675-8.946l1.617-1.491c2.457 2.415 4.41 5.628 4.41 10.437z"/></g><path stroke="#007AFF" stroke-dasharray="6" stroke-linecap="round" stroke-width="4" d="M116.25 849.5V880m190.958333-30.5V880m257-30.5V880m324-30.5V880"/><g stroke="#007AFF" transform="matrix(1 0 0 -1 552 747)"><path stroke-width="4" d="M11 7v39"/><path fill="#007AFF" stroke-width="3" d="M11.064 51.33019434L3.3576285 39h15.41274296L11.064 51.33019434z"/><circle cx="7" cy="7" r="6" fill="#007AFF" stroke-width="3" transform="translate(4)"/></g><g stroke="#007AFF" transform="matrix(1 0 0 -1 296 747)"><path stroke-width="4" d="M11 7v39"/><path fill="#007AFF" stroke-width="3" d="M11.064 51.33019434L3.3576285 39h15.41274296L11.064 51.33019434z"/><circle cx="7" cy="7" r="6" fill="#007AFF" stroke-width="3" transform="translate(4)"/></g><g stroke="#007AFF" transform="matrix(1 0 0 -1 104 747)"><path stroke-width="4" d="M11 7v39"/><path fill="#007AFF" stroke-width="3" d="M11.064 51.33019434L3.3576285 39h15.41274296L11.064 51.33019434z"/><circle cx="7" cy="7" r="6" fill="#007AFF" stroke-width="3" transform="translate(4)"/></g><g fill="#007AFF" transform="translate(414 221)" fill-rule="nonzero"><circle cx="4" cy="4" r="4"/><circle cx="21" cy="4" r="4"/><circle cx="38" cy="4" r="4"/></g><g fill="#007AFF" transform="translate(414 477)" fill-rule="nonzero"><circle cx="4" cy="4" r="4"/><circle cx="21" cy="4" r="4"/><circle cx="38" cy="4" r="4"/></g><g fill="#007AFF" transform="translate(414 637)" fill-rule="nonzero"><circle cx="4" cy="4" r="4"/><circle cx="21" cy="4" r="4"/><circle cx="38" cy="4" r="4"/></g><g fill="#007AFF" transform="translate(846 637)" fill-rule="nonzero"><circle cx="4" cy="4" r="4"/><circle cx="21" cy="4" r="4"/><circle cx="38" cy="4" r="4"/></g><g fill-rule="nonzero"><path fill="#007AFF" fill-opacity=".08" stroke="#007AFF" stroke-dasharray="7" stroke-linecap="round" stroke-width="4" d="M1037 1208.809762V1209H933c-.1664489-.00096-.3331172 0-.5 0-24.5766714 0-44.5-20.818759-44.5-46.5 0-25.332663 19.3861506-45.9339478 43.5018542-46.4885334C938.370382 1098.0289209 958.6059313 1085 982.5 1085c27.34168 0 49.892918 17.0599836 53.107249 39.0805545C1057.588793 1125.4428604 1075 1143.9139216 1075 1166.5c0 22.106905-16.680271 40.271544-38 42.309762z"/><path fill="#012F62" d="M909.248 1159.238c0-4.809 1.953-8.022 4.41-10.437l1.617 1.491c-2.247 2.394-3.675 5.166-3.675 8.946 0 3.78 1.428 6.573 3.675 8.967l-1.617 1.47c-2.457-2.394-4.41-5.628-4.41-10.437zM926.3 1166h-9.324v-14.889h9.324v2.73h-6.426v3.402h5.817v2.583h-5.817v3.444h6.426v2.73zm1.449 0l3.675-5.187-3.675-5.145h3.318c.357.567 1.701 2.499 2.058 3.066l2.037-3.066h3.171l-3.612 5.061 3.738 5.271h-3.276l-2.163-3.171c-.378.567-1.764 2.604-2.121 3.171h-3.15zm15.855-13.419v3.087h2.079v2.478h-2.079v4.326c0 .903.42 1.197 1.218 1.197.336 0 .714-.042.861-.084v2.31c-.252.105-.756.252-1.575.252-2.016 0-3.276-1.197-3.276-3.192v-4.809h-1.869v-2.478h.525c1.092 0 1.596-.714 1.596-1.638v-1.449h2.52zm6.426 7.077h4.62c-.042-1.029-.714-2.037-2.31-2.037-1.449 0-2.247 1.092-2.31 2.037zm4.893 2.688l2.331.693c-.525 1.785-2.163 3.276-4.704 3.276-2.835 0-5.334-2.037-5.334-5.523 0-3.297 2.436-5.439 5.082-5.439 3.192 0 5.103 2.037 5.103 5.355 0 .399-.042.819-.042.861h-7.392c.063 1.365 1.218 2.352 2.604 2.352 1.302 0 2.016-.651 2.352-1.575zm10.983-6.72v2.814c-.315-.063-.588-.084-.84-.084-1.428 0-2.667.693-2.667 2.919V1166h-2.793v-10.332h2.709v1.533c.63-1.365 2.058-1.617 2.94-1.617.231 0 .441.021.651.042zm4.704 4.431V1166h-2.793v-10.332h2.709v1.281c.63-1.071 1.869-1.554 2.982-1.554 2.562 0 3.738 1.827 3.738 4.095v6.51h-2.793v-6.027c0-1.155-.567-2.058-1.911-2.058-1.218 0-1.932.945-1.932 2.142zm8.841 3.129c0-1.848 1.365-2.877 3.087-3.129l2.541-.378c.588-.084.777-.378.777-.735 0-.735-.567-1.344-1.743-1.344-1.218 0-1.89.777-1.974 1.68l-2.478-.525c.168-1.617 1.659-3.402 4.431-3.402 3.276 0 4.494 1.848 4.494 3.927v5.082c0 .546.063 1.281.126 1.638h-2.562c-.063-.273-.105-.84-.105-1.239-.525.819-1.512 1.533-3.045 1.533-2.205 0-3.549-1.491-3.549-3.108zm4.137 1.029c1.176 0 2.268-.567 2.268-2.394v-.462l-2.331.357c-.714.105-1.281.504-1.281 1.302 0 .609.441 1.197 1.344 1.197zm10.605 1.785H991.4v-15.204h2.793V1166zm15.729 0l-2.919-5.733h-1.512V1166h-2.919v-14.889h5.817c2.898 0 4.746 1.995 4.746 4.578 0 2.079-1.218 3.654-3.171 4.221l3.192 6.09h-3.234zm-4.431-8.232h2.352c1.47 0 2.331-.84 2.331-2.058 0-1.26-.861-2.079-2.331-2.079h-2.352v4.137zm12.033 1.89h4.62c-.042-1.029-.714-2.037-2.31-2.037-1.449 0-2.247 1.092-2.31 2.037zm4.893 2.688l2.331.693c-.525 1.785-2.163 3.276-4.704 3.276-2.835 0-5.334-2.037-5.334-5.523 0-3.297 2.436-5.439 5.082-5.439 3.192 0 5.103 2.037 5.103 5.355 0 .399-.042.819-.042.861h-7.392c.063 1.365 1.218 2.352 2.604 2.352 1.302 0 2.016-.651 2.352-1.575zm7.476 7.644h-2.793v-14.322h2.709v1.26c.462-.798 1.617-1.491 3.171-1.491 3.024 0 4.767 2.31 4.767 5.376 0 3.129-1.953 5.439-4.872 5.439-1.428 0-2.478-.567-2.982-1.26v4.998zm5.103-9.156c0-1.827-1.134-2.898-2.562-2.898s-2.583 1.071-2.583 2.898c0 1.827 1.155 2.919 2.583 2.919 1.428 0 2.562-1.071 2.562-2.919zm9.597 2.94c1.365 0 2.625-.987 2.625-2.94 0-1.953-1.26-2.94-2.625-2.94s-2.625.987-2.625 2.94c0 1.932 1.26 2.94 2.625 2.94zm0-8.421c3.087 0 5.418 2.289 5.418 5.481 0 3.171-2.331 5.481-5.418 5.481s-5.418-2.31-5.418-5.481c0-3.192 2.331-5.481 5.418-5.481zm12.159 3.885c0 4.809-1.953 8.043-4.41 10.437l-1.617-1.47c2.247-2.394 3.675-5.187 3.675-8.967 0-3.78-1.428-6.552-3.675-8.946l1.617-1.491c2.457 2.415 4.41 5.628 4.41 10.437z"/></g><g fill-rule="nonzero"><path fill="#007AFF" fill-opacity=".08" stroke="#007AFF" stroke-dasharray="7" stroke-linecap="round" stroke-width="4" d="M708 1208.997125c-.1664489.001915-.3331172.002875-.5.002875-24.5766714 0-44.5-20.818759-44.5-46.5 0-25.332663 19.3861506-45.9339478 43.5018542-46.4885334C713.370382 1098.0289209 733.6059313 1085 757.5 1085c27.34168 0 49.892918 17.0599836 53.107249 39.0805545C832.588793 1125.4428604 850 1143.9139216 850 1166.5c0 22.106905-16.680271 40.271544-38 42.309762V1209H708z"/><path fill="#012F62" d="M712.606 1170.315c-4.158 0-7.623-3.003-7.623-7.749 0-4.746 3.591-7.77 7.581-7.77 4.116 0 6.237 2.52 6.825 4.935l-2.73.861c-.357-1.428-1.512-3.003-4.095-3.003-2.226 0-4.578 1.596-4.578 4.977 0 3.171 2.226 4.914 4.62 4.914 2.541 0 3.78-1.659 4.179-3.045l2.709.819c-.567 2.289-2.709 5.061-6.888 5.061zm13.734-2.541c1.365 0 2.625-.987 2.625-2.94 0-1.953-1.26-2.94-2.625-2.94s-2.625.987-2.625 2.94c0 1.932 1.26 2.94 2.625 2.94zm0-8.421c3.087 0 5.418 2.289 5.418 5.481 0 3.171-2.331 5.481-5.418 5.481s-5.418-2.31-5.418-5.481c0-3.192 2.331-5.481 5.418-5.481zm10.416 4.704V1170h-2.793v-10.332h2.709v1.281c.63-1.071 1.869-1.554 2.982-1.554 2.562 0 3.738 1.827 3.738 4.095v6.51h-2.793v-6.027c0-1.155-.567-2.058-1.911-2.058-1.218 0-1.932.945-1.932 2.142zm12.915-7.476v3.087h2.079v2.478h-2.079v4.326c0 .903.42 1.197 1.218 1.197.336 0 .714-.042.861-.084v2.31c-.252.105-.756.252-1.575.252-2.016 0-3.276-1.197-3.276-3.192v-4.809h-1.869v-2.478h.525c1.092 0 1.596-.714 1.596-1.638v-1.449h2.52zm6.426 7.077h4.62c-.042-1.029-.714-2.037-2.31-2.037-1.449 0-2.247 1.092-2.31 2.037zm4.893 2.688l2.331.693c-.525 1.785-2.163 3.276-4.704 3.276-2.835 0-5.334-2.037-5.334-5.523 0-3.297 2.436-5.439 5.082-5.439 3.192 0 5.103 2.037 5.103 5.355 0 .399-.042.819-.042.861h-7.392c.063 1.365 1.218 2.352 2.604 2.352 1.302 0 2.016-.651 2.352-1.575zm7.476-2.289V1170h-2.793v-10.332h2.709v1.281c.63-1.071 1.869-1.554 2.982-1.554 2.562 0 3.738 1.827 3.738 4.095v6.51h-2.793v-6.027c0-1.155-.567-2.058-1.911-2.058-1.218 0-1.932.945-1.932 2.142zm12.915-7.476v3.087h2.079v2.478h-2.079v4.326c0 .903.42 1.197 1.218 1.197.336 0 .714-.042.861-.084v2.31c-.252.105-.756.252-1.575.252-2.016 0-3.276-1.197-3.276-3.192v-4.809h-1.869v-2.478h.525c1.092 0 1.596-.714 1.596-1.638v-1.449h2.52zm9.177.525c-.63 0-1.449.273-1.449 1.428v1.134h2.331v2.394h-2.331V1170h-2.814v-7.938h-1.722v-2.394h1.722v-1.176c0-2.331 1.47-3.843 3.759-3.843.588 0 1.155.105 1.386.21v2.352c-.147-.042-.42-.105-.882-.105zm9.45 12.894c-.042-.21-.084-.693-.084-1.113-.567.966-1.764 1.386-2.856 1.386-2.499 0-3.927-1.827-3.927-4.074v-6.531h2.793v5.964c0 1.155.588 2.079 1.89 2.079 1.239 0 1.953-.84 1.953-2.037v-6.006h2.793v8.463c0 .798.063 1.512.105 1.869h-2.667zm8.337 0h-2.793v-15.204h2.793V1170z"/></g><path stroke="#007AFF" stroke-width="4" d="M756 1034V708"/><circle cx="7" cy="7" r="6" fill="#007AFF" stroke="#007AFF" stroke-width="3" transform="translate(749 1027)"/><circle cx="7" cy="7" r="6" fill="#007AFF" stroke="#007AFF" stroke-width="3" transform="translate(975 1027)"/><path stroke="#007AFF" stroke-width="4" d="M981.5 1034V759.264794 708"/><path fill="#007AFF" stroke="#007AFF" stroke-width="3" d="M756.5 696.16980566L748.7936285 708.5h15.41274296L756.5 696.16980566zM981.5 696.16980566L973.7936285 708.5h15.41274296L981.5 696.16980566z"/><path fill="#012F62" fill-rule="nonzero" d="M750.662 1066l-1.071-3.024h-5.754l-1.071 3.024h-3.486l5.607-14.889h3.843l5.544 14.889h-3.612zm-3.906-11.193l-1.827 5.145h3.612l-1.785-5.145zm12.684 2.982h1.932c1.26 0 2.121-.735 2.121-1.89 0-1.197-.861-1.911-2.121-1.911h-1.932v3.801zm2.268 2.856h-2.289V1066h-3.318v-14.889h5.607c3.024 0 5.103 1.995 5.103 4.767 0 2.814-2.079 4.767-5.103 4.767zm10.626 5.355h-3.36v-14.889h3.36V1066zm204.328 0l-1.071-3.024h-5.754l-1.071 3.024h-3.486l5.607-14.889h3.843l5.544 14.889h-3.612zm-3.906-11.193l-1.827 5.145h3.612l-1.785-5.145zm12.684 2.982h1.932c1.26 0 2.121-.735 2.121-1.89 0-1.197-.861-1.911-2.121-1.911h-1.932v3.801zm2.268 2.856h-2.289V1066h-3.318v-14.889h5.607c3.024 0 5.103 1.995 5.103 4.767 0 2.814-2.079 4.767-5.103 4.767zm10.626 5.355h-3.36v-14.889h3.36V1066z"/></g></svg>